<mxfile host="app.diagrams.net" modified="2024-03-04T23:37:13.196Z" agent="Mozilla/5.0 (Windows NT 10.0; Win64; x64) AppleWebKit/537.36 (KHTML, like Gecko) Chrome/122.0.0.0 Safari/537.36" etag="XKakhbfjIhT5QtOVlM1z" version="24.0.0" type="google" pages="3">
  <diagram name="Privacy Preserving Reinforcement Learning" id="z0pMH2gL0qCIltJfzdCE">
    <mxGraphModel grid="1" page="1" gridSize="10" guides="1" tooltips="1" connect="1" arrows="1" fold="1" pageScale="1" pageWidth="850" pageHeight="1100" math="0" shadow="0">
      <root>
        <mxCell id="0" />
        <mxCell id="1" parent="0" />
        <mxCell id="YsBqf66ixwYEChI6fcZ4-15" value="" style="rounded=1;whiteSpace=wrap;html=1;fillColor=none;dashed=1;dashPattern=8 8;" parent="1" vertex="1">
          <mxGeometry x="570" y="570" width="510" height="300" as="geometry" />
        </mxCell>
        <mxCell id="mb57GjcYipM0VSU4Pdz6-1" value="OASIS" style="swimlane;whiteSpace=wrap;html=1;" parent="1" vertex="1">
          <mxGeometry x="10" y="400" width="171" height="90" as="geometry" />
        </mxCell>
        <mxCell id="mb57GjcYipM0VSU4Pdz6-2" value="Caiso Demand Forecast" style="rounded=1;whiteSpace=wrap;html=1;" parent="mb57GjcYipM0VSU4Pdz6-1" vertex="1">
          <mxGeometry x="20" y="32" width="140.5" height="20" as="geometry" />
        </mxCell>
        <mxCell id="GfDtbFVrV-_29sVv-z_T-3" value="Wind and Solar Forecast" style="rounded=1;whiteSpace=wrap;html=1;" parent="mb57GjcYipM0VSU4Pdz6-1" vertex="1">
          <mxGeometry x="20" y="58" width="140.5" height="20" as="geometry" />
        </mxCell>
        <mxCell id="mb57GjcYipM0VSU4Pdz6-3" style="edgeStyle=orthogonalEdgeStyle;rounded=0;orthogonalLoop=1;jettySize=auto;html=1;entryX=0.145;entryY=0;entryDx=0;entryDy=4.35;entryPerimeter=0;" parent="1" source="mb57GjcYipM0VSU4Pdz6-4" target="mb57GjcYipM0VSU4Pdz6-11" edge="1">
          <mxGeometry relative="1" as="geometry">
            <mxPoint x="380" y="558" as="targetPoint" />
          </mxGeometry>
        </mxCell>
        <mxCell id="mb57GjcYipM0VSU4Pdz6-4" value="Web Scrapper" style="rounded=1;whiteSpace=wrap;html=1;" parent="1" vertex="1">
          <mxGeometry x="225.5" y="470" width="120" height="60" as="geometry" />
        </mxCell>
        <mxCell id="mb57GjcYipM0VSU4Pdz6-5" style="edgeStyle=orthogonalEdgeStyle;rounded=0;orthogonalLoop=1;jettySize=auto;html=1;entryX=0;entryY=0.5;entryDx=0;entryDy=0;" parent="1" source="mb57GjcYipM0VSU4Pdz6-2" target="mb57GjcYipM0VSU4Pdz6-4" edge="1">
          <mxGeometry relative="1" as="geometry" />
        </mxCell>
        <mxCell id="mb57GjcYipM0VSU4Pdz6-6" style="edgeStyle=orthogonalEdgeStyle;rounded=0;orthogonalLoop=1;jettySize=auto;html=1;" parent="1" source="mb57GjcYipM0VSU4Pdz6-7" target="mb57GjcYipM0VSU4Pdz6-19" edge="1">
          <mxGeometry relative="1" as="geometry">
            <mxPoint x="640" y="498" as="targetPoint" />
          </mxGeometry>
        </mxCell>
        <mxCell id="mb57GjcYipM0VSU4Pdz6-7" value="Input Data Frame&lt;br&gt;for Forecast" style="rounded=1;whiteSpace=wrap;html=1;" parent="1" vertex="1">
          <mxGeometry x="466" y="468" width="120" height="60" as="geometry" />
        </mxCell>
        <mxCell id="mb57GjcYipM0VSU4Pdz6-8" value="#Zone ID" style="text;html=1;align=center;verticalAlign=middle;whiteSpace=wrap;rounded=0;fontSize=9;fontStyle=2" parent="1" vertex="1">
          <mxGeometry x="522" y="408" width="80" height="10" as="geometry" />
        </mxCell>
        <mxCell id="mb57GjcYipM0VSU4Pdz6-9" style="edgeStyle=orthogonalEdgeStyle;rounded=0;orthogonalLoop=1;jettySize=auto;html=1;" parent="1" source="mb57GjcYipM0VSU4Pdz6-10" target="mb57GjcYipM0VSU4Pdz6-7" edge="1">
          <mxGeometry relative="1" as="geometry" />
        </mxCell>
        <mxCell id="mb57GjcYipM0VSU4Pdz6-10" value="config file" style="shape=parallelogram;perimeter=parallelogramPerimeter;whiteSpace=wrap;html=1;fixedSize=1;" parent="1" vertex="1">
          <mxGeometry x="409" y="408" width="120" height="22" as="geometry" />
        </mxCell>
        <mxCell id="mb57GjcYipM0VSU4Pdz6-11" value="Local Archive" style="shape=cylinder3;whiteSpace=wrap;html=1;boundedLbl=1;backgroundOutline=1;size=15;" parent="1" vertex="1">
          <mxGeometry x="359" y="548" width="60" height="80" as="geometry" />
        </mxCell>
        <mxCell id="mb57GjcYipM0VSU4Pdz6-12" value="" style="endArrow=classic;html=1;rounded=0;exitX=0.855;exitY=0;exitDx=0;exitDy=4.35;exitPerimeter=0;entryX=0;entryY=0.5;entryDx=0;entryDy=0;" parent="1" source="mb57GjcYipM0VSU4Pdz6-11" target="mb57GjcYipM0VSU4Pdz6-7" edge="1">
          <mxGeometry width="50" height="50" relative="1" as="geometry">
            <mxPoint x="430" y="558" as="sourcePoint" />
            <mxPoint x="440" y="498" as="targetPoint" />
            <Array as="points">
              <mxPoint x="410" y="498" />
            </Array>
          </mxGeometry>
        </mxCell>
        <mxCell id="mb57GjcYipM0VSU4Pdz6-13" value="#Forecast Type" style="text;html=1;align=center;verticalAlign=middle;whiteSpace=wrap;rounded=0;fontSize=9;fontStyle=2" parent="1" vertex="1">
          <mxGeometry x="531" y="420" width="86" height="10" as="geometry" />
        </mxCell>
        <mxCell id="mb57GjcYipM0VSU4Pdz6-14" value="#Training Set" style="text;html=1;align=center;verticalAlign=middle;whiteSpace=wrap;rounded=0;fontSize=9;fontStyle=2" parent="1" vertex="1">
          <mxGeometry x="526" y="430" width="86" height="10" as="geometry" />
        </mxCell>
        <mxCell id="mb57GjcYipM0VSU4Pdz6-15" value="#Validation Set" style="text;html=1;align=center;verticalAlign=middle;whiteSpace=wrap;rounded=0;fontSize=9;fontStyle=2" parent="1" vertex="1">
          <mxGeometry x="529" y="450" width="86" height="10" as="geometry" />
        </mxCell>
        <mxCell id="mb57GjcYipM0VSU4Pdz6-16" style="edgeStyle=orthogonalEdgeStyle;rounded=0;orthogonalLoop=1;jettySize=auto;html=1;entryX=0;entryY=0.5;entryDx=0;entryDy=0;" parent="1" source="mb57GjcYipM0VSU4Pdz6-17" target="mb57GjcYipM0VSU4Pdz6-24" edge="1">
          <mxGeometry relative="1" as="geometry" />
        </mxCell>
        <mxCell id="mb57GjcYipM0VSU4Pdz6-17" value="Validation Set" style="rounded=1;whiteSpace=wrap;html=1;" parent="1" vertex="1">
          <mxGeometry x="649.5" y="708" width="120" height="60" as="geometry" />
        </mxCell>
        <mxCell id="mb57GjcYipM0VSU4Pdz6-18" style="edgeStyle=orthogonalEdgeStyle;rounded=0;orthogonalLoop=1;jettySize=auto;html=1;" parent="1" source="mb57GjcYipM0VSU4Pdz6-19" target="mb57GjcYipM0VSU4Pdz6-22" edge="1">
          <mxGeometry relative="1" as="geometry">
            <mxPoint x="822.5" y="498" as="targetPoint" />
          </mxGeometry>
        </mxCell>
        <mxCell id="mb57GjcYipM0VSU4Pdz6-19" value="Training Set" style="shape=parallelogram;perimeter=parallelogramPerimeter;whiteSpace=wrap;html=1;fixedSize=1;" parent="1" vertex="1">
          <mxGeometry x="649.5" y="468" width="120" height="60" as="geometry" />
        </mxCell>
        <mxCell id="mb57GjcYipM0VSU4Pdz6-20" style="edgeStyle=orthogonalEdgeStyle;rounded=0;orthogonalLoop=1;jettySize=auto;html=1;exitX=1;exitY=0.5;exitDx=0;exitDy=0;entryX=-0.008;entryY=0.57;entryDx=0;entryDy=0;entryPerimeter=0;" parent="1" source="mb57GjcYipM0VSU4Pdz6-7" target="mb57GjcYipM0VSU4Pdz6-17" edge="1">
          <mxGeometry relative="1" as="geometry">
            <mxPoint x="596" y="508" as="sourcePoint" />
            <mxPoint x="660" y="508" as="targetPoint" />
            <Array as="points">
              <mxPoint x="610" y="498" />
              <mxPoint x="610" y="738" />
              <mxPoint x="649" y="738" />
            </Array>
          </mxGeometry>
        </mxCell>
        <mxCell id="mb57GjcYipM0VSU4Pdz6-22" value="Forecast Models" style="rounded=1;whiteSpace=wrap;html=1;" parent="1" vertex="1">
          <mxGeometry x="822.5" y="468" width="120" height="60" as="geometry" />
        </mxCell>
        <mxCell id="Ic7fX3qQCsusOm03f4yL-4" style="edgeStyle=orthogonalEdgeStyle;rounded=0;orthogonalLoop=1;jettySize=auto;html=1;" parent="1" source="mb57GjcYipM0VSU4Pdz6-24" target="mb57GjcYipM0VSU4Pdz6-25" edge="1">
          <mxGeometry relative="1" as="geometry" />
        </mxCell>
        <mxCell id="mb57GjcYipM0VSU4Pdz6-24" value="Model Evaluation" style="rhombus;whiteSpace=wrap;html=1;" parent="1" vertex="1">
          <mxGeometry x="833" y="690" width="100" height="82" as="geometry" />
        </mxCell>
        <mxCell id="Ic7fX3qQCsusOm03f4yL-3" style="edgeStyle=orthogonalEdgeStyle;rounded=0;orthogonalLoop=1;jettySize=auto;html=1;entryX=1;entryY=0.5;entryDx=0;entryDy=0;" parent="1" source="mb57GjcYipM0VSU4Pdz6-25" target="Ic7fX3qQCsusOm03f4yL-2" edge="1">
          <mxGeometry relative="1" as="geometry">
            <Array as="points">
              <mxPoint x="1030" y="827" />
              <mxPoint x="1030" y="620" />
            </Array>
          </mxGeometry>
        </mxCell>
        <mxCell id="mb57GjcYipM0VSU4Pdz6-25" value="Rewarding Model" style="rounded=1;whiteSpace=wrap;html=1;" parent="1" vertex="1">
          <mxGeometry x="823" y="797" width="120" height="60" as="geometry" />
        </mxCell>
        <mxCell id="GfDtbFVrV-_29sVv-z_T-1" value="" style="endArrow=none;html=1;rounded=0;" parent="1" edge="1">
          <mxGeometry width="50" height="50" relative="1" as="geometry">
            <mxPoint x="45.5" y="288" as="sourcePoint" />
            <mxPoint x="545.5" y="288" as="targetPoint" />
          </mxGeometry>
        </mxCell>
        <mxCell id="GfDtbFVrV-_29sVv-z_T-2" value="" style="endArrow=none;html=1;rounded=0;" parent="1" edge="1">
          <mxGeometry width="50" height="50" relative="1" as="geometry">
            <mxPoint x="65.5" y="308" as="sourcePoint" />
            <mxPoint x="65.5" y="138" as="targetPoint" />
          </mxGeometry>
        </mxCell>
        <mxCell id="YsBqf66ixwYEChI6fcZ4-19" value="Online Reinforcement Ensemble" style="text;html=1;align=center;verticalAlign=middle;whiteSpace=wrap;rounded=0;fontStyle=2" parent="1" vertex="1">
          <mxGeometry x="602" y="810" width="80" height="47" as="geometry" />
        </mxCell>
        <mxCell id="GgKTrHe3avayRDhxF36D-1" value="" style="endArrow=none;html=1;rounded=0;fillColor=#e1d5e7;strokeColor=#9673a6;strokeWidth=3;" parent="1" edge="1">
          <mxGeometry width="50" height="50" relative="1" as="geometry">
            <mxPoint x="64.75" y="170" as="sourcePoint" />
            <mxPoint x="534.75" y="140" as="targetPoint" />
            <Array as="points">
              <mxPoint x="104.75" y="200" />
              <mxPoint x="164.25" y="210" />
              <mxPoint x="204.75" y="180" />
              <mxPoint x="244.75" y="190" />
              <mxPoint x="274.25" y="170" />
              <mxPoint x="354.25" y="190" />
              <mxPoint x="384.75" y="220" />
              <mxPoint x="444.75" y="220" />
              <mxPoint x="494.75" y="250" />
              <mxPoint x="504.75" y="190" />
            </Array>
          </mxGeometry>
        </mxCell>
        <mxCell id="GgKTrHe3avayRDhxF36D-2" value="" style="endArrow=none;html=1;rounded=0;fillColor=#dae8fc;strokeColor=#6c8ebf;strokeWidth=1;dashed=1;dashPattern=12 12;" parent="1" edge="1">
          <mxGeometry width="50" height="50" relative="1" as="geometry">
            <mxPoint x="64.75" y="200" as="sourcePoint" />
            <mxPoint x="534.75" y="170" as="targetPoint" />
            <Array as="points">
              <mxPoint x="104.75" y="230" />
              <mxPoint x="164.25" y="240" />
              <mxPoint x="204.75" y="210" />
              <mxPoint x="244.75" y="220" />
              <mxPoint x="274.25" y="200" />
              <mxPoint x="354.25" y="220" />
              <mxPoint x="384.75" y="250" />
              <mxPoint x="444.75" y="250" />
              <mxPoint x="494.75" y="280" />
              <mxPoint x="504.75" y="220" />
            </Array>
          </mxGeometry>
        </mxCell>
        <mxCell id="GgKTrHe3avayRDhxF36D-3" value="#F1" style="text;html=1;align=center;verticalAlign=middle;whiteSpace=wrap;rounded=0;fontSize=8;fontColor=#004C99;" parent="1" vertex="1">
          <mxGeometry x="524.75" y="170" width="30" height="20" as="geometry" />
        </mxCell>
        <mxCell id="GgKTrHe3avayRDhxF36D-4" value="" style="endArrow=none;html=1;rounded=0;fillColor=#dae8fc;strokeColor=#6c8ebf;strokeWidth=1;dashed=1;dashPattern=12 12;" parent="1" edge="1">
          <mxGeometry width="50" height="50" relative="1" as="geometry">
            <mxPoint x="64.75" y="160" as="sourcePoint" />
            <mxPoint x="534.75" y="50" as="targetPoint" />
            <Array as="points">
              <mxPoint x="94.75" y="210" />
              <mxPoint x="194.75" y="130" />
              <mxPoint x="244.75" y="140" />
              <mxPoint x="294.75" y="140" />
              <mxPoint x="324.75" y="200" />
              <mxPoint x="354.75" y="200" />
              <mxPoint x="394.75" y="230" />
              <mxPoint x="444.75" y="230" />
              <mxPoint x="474.75" y="190" />
              <mxPoint x="474.75" y="150" />
              <mxPoint x="504.75" y="120" />
            </Array>
          </mxGeometry>
        </mxCell>
        <mxCell id="GgKTrHe3avayRDhxF36D-5" value="#F2" style="text;html=1;align=center;verticalAlign=middle;whiteSpace=wrap;rounded=0;fontSize=8;fontColor=#004C99;" parent="1" vertex="1">
          <mxGeometry x="524.75" y="40" width="30" height="20" as="geometry" />
        </mxCell>
        <mxCell id="GgKTrHe3avayRDhxF36D-6" value="" style="endArrow=none;html=1;rounded=0;fillColor=#dae8fc;strokeColor=#6c8ebf;strokeWidth=1;dashed=1;dashPattern=12 12;" parent="1" edge="1">
          <mxGeometry width="50" height="50" relative="1" as="geometry">
            <mxPoint x="64.75" y="190" as="sourcePoint" />
            <mxPoint x="534.75" y="120" as="targetPoint" />
            <Array as="points">
              <mxPoint x="104.75" y="220" />
              <mxPoint x="194.75" y="190" />
              <mxPoint x="244.75" y="200" />
              <mxPoint x="294.75" y="170" />
              <mxPoint x="344.75" y="200" />
              <mxPoint x="384.75" y="210" />
              <mxPoint x="424.75" y="220" />
              <mxPoint x="464.75" y="230" />
              <mxPoint x="474.75" y="220" />
              <mxPoint x="514.75" y="180" />
            </Array>
          </mxGeometry>
        </mxCell>
        <mxCell id="GgKTrHe3avayRDhxF36D-7" value="#F3" style="text;html=1;align=center;verticalAlign=middle;whiteSpace=wrap;rounded=0;fontSize=8;fontColor=#004C99;" parent="1" vertex="1">
          <mxGeometry x="524.75" y="110" width="30" height="20" as="geometry" />
        </mxCell>
        <mxCell id="GgKTrHe3avayRDhxF36D-8" value="Measured" style="text;html=1;align=center;verticalAlign=middle;whiteSpace=wrap;rounded=0;fontSize=8;fontColor=#9673a6;fontStyle=1" parent="1" vertex="1">
          <mxGeometry x="535" y="130" width="50.5" height="20" as="geometry" />
        </mxCell>
        <mxCell id="GgKTrHe3avayRDhxF36D-9" value="" style="endArrow=none;html=1;rounded=0;fillColor=#dae8fc;strokeColor=#6c8ebf;strokeWidth=1;dashed=1;dashPattern=12 12;" parent="1" edge="1">
          <mxGeometry width="50" height="50" relative="1" as="geometry">
            <mxPoint x="66.5" y="170" as="sourcePoint" />
            <mxPoint x="536.5" y="90" as="targetPoint" />
            <Array as="points">
              <mxPoint x="106.5" y="200" />
              <mxPoint x="196.5" y="170" />
              <mxPoint x="246.5" y="180" />
              <mxPoint x="295.5" y="160" />
              <mxPoint x="346.5" y="180" />
              <mxPoint x="395.5" y="200" />
              <mxPoint x="445.5" y="210" />
              <mxPoint x="466.5" y="210" />
              <mxPoint x="476.5" y="200" />
              <mxPoint x="516.5" y="160" />
            </Array>
          </mxGeometry>
        </mxCell>
        <mxCell id="GgKTrHe3avayRDhxF36D-10" value="#F4" style="text;html=1;align=center;verticalAlign=middle;whiteSpace=wrap;rounded=0;fontSize=8;fontColor=#004C99;" parent="1" vertex="1">
          <mxGeometry x="526" y="88" width="30" height="20" as="geometry" />
        </mxCell>
        <mxCell id="GgKTrHe3avayRDhxF36D-11" value="MW" style="text;html=1;align=center;verticalAlign=middle;whiteSpace=wrap;rounded=0;" parent="1" vertex="1">
          <mxGeometry x="15.5" y="125" width="60" height="30" as="geometry" />
        </mxCell>
        <mxCell id="GgKTrHe3avayRDhxF36D-13" value="" style="endArrow=none;html=1;rounded=0;fillColor=#d5e8d4;strokeColor=#82b366;strokeWidth=2;dashed=1;dashPattern=1 1;" parent="1" edge="1">
          <mxGeometry width="50" height="50" relative="1" as="geometry">
            <mxPoint x="65.5" y="180" as="sourcePoint" />
            <mxPoint x="535.5" y="160" as="targetPoint" />
            <Array as="points">
              <mxPoint x="105.5" y="210" />
              <mxPoint x="195.5" y="210" />
              <mxPoint x="225.5" y="190" />
              <mxPoint x="275.5" y="180" />
              <mxPoint x="304.75" y="180" />
              <mxPoint x="365.5" y="200" />
              <mxPoint x="394.75" y="220" />
              <mxPoint x="445.5" y="220" />
              <mxPoint x="485.5" y="240" />
              <mxPoint x="495.5" y="230" />
            </Array>
          </mxGeometry>
        </mxCell>
        <mxCell id="GgKTrHe3avayRDhxF36D-14" value="Ensemble" style="text;html=1;align=center;verticalAlign=middle;whiteSpace=wrap;rounded=0;fontSize=8;fontColor=#82b366;fontStyle=1" parent="1" vertex="1">
          <mxGeometry x="535" y="150" width="50.5" height="20" as="geometry" />
        </mxCell>
        <mxCell id="GgKTrHe3avayRDhxF36D-15" value="#F1" style="ellipse;whiteSpace=wrap;html=1;aspect=fixed;fontSize=9;" parent="1" vertex="1">
          <mxGeometry x="630" y="44.75" width="35.5" height="35.5" as="geometry" />
        </mxCell>
        <mxCell id="GgKTrHe3avayRDhxF36D-16" value="#F2" style="ellipse;whiteSpace=wrap;html=1;aspect=fixed;fontSize=9;" parent="1" vertex="1">
          <mxGeometry x="630" y="109.75" width="35.5" height="35.5" as="geometry" />
        </mxCell>
        <mxCell id="GgKTrHe3avayRDhxF36D-17" value="#F3" style="ellipse;whiteSpace=wrap;html=1;aspect=fixed;fontSize=9;" parent="1" vertex="1">
          <mxGeometry x="630" y="174.75" width="35.5" height="35.5" as="geometry" />
        </mxCell>
        <mxCell id="GgKTrHe3avayRDhxF36D-18" value="#F4" style="ellipse;whiteSpace=wrap;html=1;aspect=fixed;fontSize=9;" parent="1" vertex="1">
          <mxGeometry x="630" y="240.25" width="35" height="35" as="geometry" />
        </mxCell>
        <mxCell id="GgKTrHe3avayRDhxF36D-19" value="#Ensem" style="ellipse;whiteSpace=wrap;html=1;aspect=fixed;fontSize=9;" parent="1" vertex="1">
          <mxGeometry x="770" y="131.75" width="43" height="43" as="geometry" />
        </mxCell>
        <mxCell id="GgKTrHe3avayRDhxF36D-24" value="" style="endArrow=classic;html=1;rounded=0;exitX=1;exitY=0.5;exitDx=0;exitDy=0;entryX=0;entryY=0.5;entryDx=0;entryDy=0;fontSize=9;" parent="1" source="GgKTrHe3avayRDhxF36D-15" target="GgKTrHe3avayRDhxF36D-19" edge="1">
          <mxGeometry width="50" height="50" relative="1" as="geometry">
            <mxPoint x="835" y="105.25" as="sourcePoint" />
            <mxPoint x="885" y="55.25" as="targetPoint" />
          </mxGeometry>
        </mxCell>
        <mxCell id="GgKTrHe3avayRDhxF36D-25" value="" style="endArrow=classic;html=1;rounded=0;exitX=1;exitY=0.5;exitDx=0;exitDy=0;entryX=0;entryY=0.5;entryDx=0;entryDy=0;fontSize=9;" parent="1" source="GgKTrHe3avayRDhxF36D-16" target="GgKTrHe3avayRDhxF36D-19" edge="1">
          <mxGeometry width="50" height="50" relative="1" as="geometry">
            <mxPoint x="675" y="65.25" as="sourcePoint" />
            <mxPoint x="781" y="154.25" as="targetPoint" />
          </mxGeometry>
        </mxCell>
        <mxCell id="GgKTrHe3avayRDhxF36D-26" value="" style="endArrow=classic;html=1;rounded=0;exitX=1;exitY=0.5;exitDx=0;exitDy=0;entryX=0;entryY=0.5;entryDx=0;entryDy=0;fontSize=9;" parent="1" source="GgKTrHe3avayRDhxF36D-17" target="GgKTrHe3avayRDhxF36D-19" edge="1">
          <mxGeometry width="50" height="50" relative="1" as="geometry">
            <mxPoint x="676" y="65.25" as="sourcePoint" />
            <mxPoint x="775" y="169.25" as="targetPoint" />
          </mxGeometry>
        </mxCell>
        <mxCell id="GgKTrHe3avayRDhxF36D-27" value="" style="endArrow=classic;html=1;rounded=0;exitX=1;exitY=0.5;exitDx=0;exitDy=0;entryX=0;entryY=0.5;entryDx=0;entryDy=0;fontSize=9;" parent="1" source="GgKTrHe3avayRDhxF36D-18" target="GgKTrHe3avayRDhxF36D-19" edge="1">
          <mxGeometry width="50" height="50" relative="1" as="geometry">
            <mxPoint x="676" y="195.25" as="sourcePoint" />
            <mxPoint x="775" y="169.25" as="targetPoint" />
          </mxGeometry>
        </mxCell>
        <mxCell id="GgKTrHe3avayRDhxF36D-28" style="edgeStyle=orthogonalEdgeStyle;rounded=0;orthogonalLoop=1;jettySize=auto;html=1;strokeWidth=4;" parent="1" edge="1">
          <mxGeometry relative="1" as="geometry">
            <mxPoint x="852.5" y="646" as="sourcePoint" />
            <mxPoint x="856.0000000000005" y="711" as="targetPoint" />
            <Array as="points">
              <mxPoint x="852" y="677" />
              <mxPoint x="854" y="677" />
              <mxPoint x="854" y="694" />
              <mxPoint x="856" y="694" />
            </Array>
          </mxGeometry>
        </mxCell>
        <mxCell id="GgKTrHe3avayRDhxF36D-29" style="edgeStyle=orthogonalEdgeStyle;rounded=0;orthogonalLoop=1;jettySize=auto;html=1;strokeWidth=2;" parent="1" edge="1">
          <mxGeometry relative="1" as="geometry">
            <mxPoint x="912.5" y="646" as="sourcePoint" />
            <mxPoint x="914" y="711" as="targetPoint" />
            <Array as="points">
              <mxPoint x="912" y="677" />
              <mxPoint x="914" y="677" />
            </Array>
          </mxGeometry>
        </mxCell>
        <mxCell id="GgKTrHe3avayRDhxF36D-30" style="edgeStyle=orthogonalEdgeStyle;rounded=0;orthogonalLoop=1;jettySize=auto;html=1;" parent="1" edge="1">
          <mxGeometry relative="1" as="geometry">
            <mxPoint x="872.5" y="646" as="sourcePoint" />
            <mxPoint x="874" y="711" as="targetPoint" />
            <Array as="points">
              <mxPoint x="872" y="677" />
              <mxPoint x="874" y="677" />
            </Array>
          </mxGeometry>
        </mxCell>
        <mxCell id="GgKTrHe3avayRDhxF36D-31" style="edgeStyle=orthogonalEdgeStyle;rounded=0;orthogonalLoop=1;jettySize=auto;html=1;strokeWidth=0.5;" parent="1" edge="1">
          <mxGeometry relative="1" as="geometry">
            <mxPoint x="892.5" y="646" as="sourcePoint" />
            <mxPoint x="894" y="711" as="targetPoint" />
            <Array as="points">
              <mxPoint x="892" y="677" />
              <mxPoint x="894" y="677" />
            </Array>
          </mxGeometry>
        </mxCell>
        <mxCell id="GgKTrHe3avayRDhxF36D-32" style="edgeStyle=orthogonalEdgeStyle;rounded=0;orthogonalLoop=1;jettySize=auto;html=1;entryX=0.25;entryY=0;entryDx=0;entryDy=0;" parent="1" edge="1">
          <mxGeometry relative="1" as="geometry">
            <mxPoint x="850.01" y="528" as="sourcePoint" />
            <mxPoint x="853.01" y="590" as="targetPoint" />
            <Array as="points">
              <mxPoint x="850.01" y="559" />
              <mxPoint x="852.01" y="559" />
            </Array>
          </mxGeometry>
        </mxCell>
        <mxCell id="GgKTrHe3avayRDhxF36D-33" style="edgeStyle=orthogonalEdgeStyle;rounded=0;orthogonalLoop=1;jettySize=auto;html=1;entryX=0.25;entryY=0;entryDx=0;entryDy=0;" parent="1" edge="1">
          <mxGeometry relative="1" as="geometry">
            <mxPoint x="870.01" y="528" as="sourcePoint" />
            <mxPoint x="873.01" y="590" as="targetPoint" />
            <Array as="points">
              <mxPoint x="870.01" y="559" />
              <mxPoint x="872.01" y="559" />
            </Array>
          </mxGeometry>
        </mxCell>
        <mxCell id="GgKTrHe3avayRDhxF36D-34" style="edgeStyle=orthogonalEdgeStyle;rounded=0;orthogonalLoop=1;jettySize=auto;html=1;entryX=0.25;entryY=0;entryDx=0;entryDy=0;" parent="1" edge="1">
          <mxGeometry relative="1" as="geometry">
            <mxPoint x="890.01" y="528" as="sourcePoint" />
            <mxPoint x="893.01" y="590" as="targetPoint" />
            <Array as="points">
              <mxPoint x="890.01" y="559" />
              <mxPoint x="892.01" y="559" />
            </Array>
          </mxGeometry>
        </mxCell>
        <mxCell id="GgKTrHe3avayRDhxF36D-35" style="edgeStyle=orthogonalEdgeStyle;rounded=0;orthogonalLoop=1;jettySize=auto;html=1;entryX=0.25;entryY=0;entryDx=0;entryDy=0;" parent="1" edge="1">
          <mxGeometry relative="1" as="geometry">
            <mxPoint x="908.01" y="528" as="sourcePoint" />
            <mxPoint x="911.01" y="590" as="targetPoint" />
            <Array as="points">
              <mxPoint x="908.01" y="559" />
              <mxPoint x="910.01" y="559" />
            </Array>
          </mxGeometry>
        </mxCell>
        <mxCell id="GgKTrHe3avayRDhxF36D-36" value="w1" style="text;html=1;align=center;verticalAlign=middle;whiteSpace=wrap;rounded=0;fontStyle=2;fontSize=9;" parent="1" vertex="1">
          <mxGeometry x="691.5" y="78.25" width="40" height="10" as="geometry" />
        </mxCell>
        <mxCell id="GgKTrHe3avayRDhxF36D-37" value="w2" style="text;html=1;align=center;verticalAlign=middle;whiteSpace=wrap;rounded=0;fontStyle=2;fontSize=9;" parent="1" vertex="1">
          <mxGeometry x="674.5" y="115.25" width="40" height="10" as="geometry" />
        </mxCell>
        <mxCell id="GgKTrHe3avayRDhxF36D-38" value="w3" style="text;html=1;align=center;verticalAlign=middle;whiteSpace=wrap;rounded=0;fontStyle=2;fontSize=9;" parent="1" vertex="1">
          <mxGeometry x="674.5" y="165.25" width="40" height="10" as="geometry" />
        </mxCell>
        <mxCell id="GgKTrHe3avayRDhxF36D-39" value="w4" style="text;html=1;align=center;verticalAlign=middle;whiteSpace=wrap;rounded=0;fontStyle=2;fontSize=9;" parent="1" vertex="1">
          <mxGeometry x="688.5" y="196.25" width="40" height="10" as="geometry" />
        </mxCell>
        <mxCell id="Ic7fX3qQCsusOm03f4yL-2" value="Ensemble Forecasting" style="rounded=1;whiteSpace=wrap;html=1;" parent="1" vertex="1">
          <mxGeometry x="822.5" y="590" width="120" height="60" as="geometry" />
        </mxCell>
        <mxCell id="x4RY1zvW9ZhVY0yINkFy-1" style="edgeStyle=orthogonalEdgeStyle;rounded=0;orthogonalLoop=1;jettySize=auto;html=1;entryX=1;entryY=0.5;entryDx=0;entryDy=0;exitX=1;exitY=0.5;exitDx=0;exitDy=0;dashed=1;" parent="1" source="mb57GjcYipM0VSU4Pdz6-25" target="mb57GjcYipM0VSU4Pdz6-22" edge="1">
          <mxGeometry relative="1" as="geometry">
            <Array as="points">
              <mxPoint x="1030" y="827" />
              <mxPoint x="1030" y="498" />
            </Array>
            <mxPoint x="953" y="837" as="sourcePoint" />
            <mxPoint x="953" y="630" as="targetPoint" />
          </mxGeometry>
        </mxCell>
        <mxCell id="ML5u2CE0Su4AJEo7Oj_A-1" value="Ensemble Forecasting" style="text;html=1;align=center;verticalAlign=middle;whiteSpace=wrap;rounded=0;fontStyle=1" parent="1" vertex="1">
          <mxGeometry x="675" y="290" width="60" height="30" as="geometry" />
        </mxCell>
        <mxCell id="ML5u2CE0Su4AJEo7Oj_A-2" value="Privacy Preserving Mechanism&lt;br&gt;(to be thought about it)" style="text;html=1;align=center;verticalAlign=middle;whiteSpace=wrap;rounded=0;fontStyle=2" parent="1" vertex="1">
          <mxGeometry x="1030" y="520" width="130" height="30" as="geometry" />
        </mxCell>
        <mxCell id="SdchjvCyDopv-PI4UXvu-1" value="" style="endArrow=none;html=1;rounded=0;" edge="1" parent="1">
          <mxGeometry width="50" height="50" relative="1" as="geometry">
            <mxPoint x="455" y="1240" as="sourcePoint" />
            <mxPoint x="455" y="990" as="targetPoint" />
          </mxGeometry>
        </mxCell>
        <mxCell id="SdchjvCyDopv-PI4UXvu-2" value="" style="endArrow=none;html=1;rounded=0;" edge="1" parent="1">
          <mxGeometry width="50" height="50" relative="1" as="geometry">
            <mxPoint x="323.5" y="1130" as="sourcePoint" />
            <mxPoint x="663.5" y="1130" as="targetPoint" />
          </mxGeometry>
        </mxCell>
        <mxCell id="SdchjvCyDopv-PI4UXvu-3" value="Actual Value&lt;div&gt;(Validation)&lt;/div&gt;" style="text;html=1;align=center;verticalAlign=middle;whiteSpace=wrap;rounded=0;" vertex="1" parent="1">
          <mxGeometry x="385" y="970" width="60" height="30" as="geometry" />
        </mxCell>
        <mxCell id="SdchjvCyDopv-PI4UXvu-4" value="Predicted Value&lt;div&gt;(Forecast Model)&lt;/div&gt;" style="text;html=1;align=center;verticalAlign=middle;whiteSpace=wrap;rounded=0;" vertex="1" parent="1">
          <mxGeometry x="649.5" y="1140" width="85.5" height="30" as="geometry" />
        </mxCell>
        <mxCell id="SdchjvCyDopv-PI4UXvu-5" value="" style="endArrow=none;html=1;rounded=0;" edge="1" parent="1" source="SdchjvCyDopv-PI4UXvu-28">
          <mxGeometry width="50" height="50" relative="1" as="geometry">
            <mxPoint x="455" y="1130" as="sourcePoint" />
            <mxPoint x="655" y="980" as="targetPoint" />
          </mxGeometry>
        </mxCell>
        <mxCell id="SdchjvCyDopv-PI4UXvu-6" value="" style="ellipse;whiteSpace=wrap;html=1;aspect=fixed;fillColor=#dae8fc;strokeColor=#6c8ebf;" vertex="1" parent="1">
          <mxGeometry x="546" y="1051" width="10" height="10" as="geometry" />
        </mxCell>
        <mxCell id="SdchjvCyDopv-PI4UXvu-7" value="" style="ellipse;whiteSpace=wrap;html=1;aspect=fixed;fillColor=#dae8fc;strokeColor=#6c8ebf;" vertex="1" parent="1">
          <mxGeometry x="556" y="1061" width="10" height="10" as="geometry" />
        </mxCell>
        <mxCell id="SdchjvCyDopv-PI4UXvu-8" value="" style="ellipse;whiteSpace=wrap;html=1;aspect=fixed;fillColor=#dae8fc;strokeColor=#6c8ebf;" vertex="1" parent="1">
          <mxGeometry x="556" y="1050" width="10" height="10" as="geometry" />
        </mxCell>
        <mxCell id="SdchjvCyDopv-PI4UXvu-9" value="" style="ellipse;whiteSpace=wrap;html=1;aspect=fixed;fillColor=#dae8fc;strokeColor=#6c8ebf;" vertex="1" parent="1">
          <mxGeometry x="540" y="1061" width="10" height="10" as="geometry" />
        </mxCell>
        <mxCell id="SdchjvCyDopv-PI4UXvu-10" value="" style="ellipse;whiteSpace=wrap;html=1;aspect=fixed;fillColor=#dae8fc;strokeColor=#6c8ebf;" vertex="1" parent="1">
          <mxGeometry x="546" y="1071" width="10" height="10" as="geometry" />
        </mxCell>
        <mxCell id="SdchjvCyDopv-PI4UXvu-11" value="#F1" style="text;html=1;align=center;verticalAlign=middle;whiteSpace=wrap;rounded=0;" vertex="1" parent="1">
          <mxGeometry x="515" y="1021" width="60" height="30" as="geometry" />
        </mxCell>
        <mxCell id="SdchjvCyDopv-PI4UXvu-12" value="" style="ellipse;whiteSpace=wrap;html=1;aspect=fixed;fillColor=#dae8fc;strokeColor=#6c8ebf;" vertex="1" parent="1">
          <mxGeometry x="521" y="1061" width="10" height="10" as="geometry" />
        </mxCell>
        <mxCell id="SdchjvCyDopv-PI4UXvu-13" value="" style="ellipse;whiteSpace=wrap;html=1;aspect=fixed;fillColor=#dae8fc;strokeColor=#6c8ebf;" vertex="1" parent="1">
          <mxGeometry x="531" y="1071" width="10" height="10" as="geometry" />
        </mxCell>
        <mxCell id="SdchjvCyDopv-PI4UXvu-14" value="" style="ellipse;whiteSpace=wrap;html=1;aspect=fixed;fillColor=#dae8fc;strokeColor=#6c8ebf;" vertex="1" parent="1">
          <mxGeometry x="635" y="1071" width="10" height="10" as="geometry" />
        </mxCell>
        <mxCell id="SdchjvCyDopv-PI4UXvu-15" value="MW" style="text;html=1;align=center;verticalAlign=middle;whiteSpace=wrap;rounded=0;" vertex="1" parent="1">
          <mxGeometry x="649.5" y="1110" width="25" height="10" as="geometry" />
        </mxCell>
        <mxCell id="SdchjvCyDopv-PI4UXvu-16" value="MW" style="text;html=1;align=center;verticalAlign=middle;whiteSpace=wrap;rounded=0;" vertex="1" parent="1">
          <mxGeometry x="457" y="980" width="25" height="10" as="geometry" />
        </mxCell>
        <mxCell id="SdchjvCyDopv-PI4UXvu-18" value="" style="ellipse;whiteSpace=wrap;html=1;aspect=fixed;fillColor=#dae8fc;strokeColor=#6c8ebf;" vertex="1" parent="1">
          <mxGeometry x="645" y="1061" width="10" height="10" as="geometry" />
        </mxCell>
        <mxCell id="SdchjvCyDopv-PI4UXvu-19" value="" style="ellipse;whiteSpace=wrap;html=1;aspect=fixed;fillColor=#dae8fc;strokeColor=#6c8ebf;" vertex="1" parent="1">
          <mxGeometry x="626.5" y="1061" width="10" height="10" as="geometry" />
        </mxCell>
        <mxCell id="SdchjvCyDopv-PI4UXvu-20" value="" style="ellipse;whiteSpace=wrap;html=1;aspect=fixed;fillColor=#dae8fc;strokeColor=#6c8ebf;" vertex="1" parent="1">
          <mxGeometry x="461" y="1081" width="10" height="10" as="geometry" />
        </mxCell>
        <mxCell id="SdchjvCyDopv-PI4UXvu-21" value="" style="ellipse;whiteSpace=wrap;html=1;aspect=fixed;fillColor=#dae8fc;strokeColor=#6c8ebf;" vertex="1" parent="1">
          <mxGeometry x="471" y="1091" width="10" height="10" as="geometry" />
        </mxCell>
        <mxCell id="SdchjvCyDopv-PI4UXvu-22" value="" style="ellipse;whiteSpace=wrap;html=1;aspect=fixed;fillColor=#dae8fc;strokeColor=#6c8ebf;" vertex="1" parent="1">
          <mxGeometry x="472" y="1081" width="10" height="10" as="geometry" />
        </mxCell>
        <mxCell id="SdchjvCyDopv-PI4UXvu-23" value="" style="ellipse;whiteSpace=wrap;html=1;aspect=fixed;fillColor=#d5e8d4;strokeColor=#82b366;" vertex="1" parent="1">
          <mxGeometry x="472" y="1110" width="10" height="10" as="geometry" />
        </mxCell>
        <mxCell id="SdchjvCyDopv-PI4UXvu-25" value="" style="endArrow=none;html=1;rounded=0;" edge="1" parent="1" target="SdchjvCyDopv-PI4UXvu-24">
          <mxGeometry width="50" height="50" relative="1" as="geometry">
            <mxPoint x="455" y="1130" as="sourcePoint" />
            <mxPoint x="655" y="980" as="targetPoint" />
          </mxGeometry>
        </mxCell>
        <mxCell id="SdchjvCyDopv-PI4UXvu-24" value="" style="ellipse;whiteSpace=wrap;html=1;aspect=fixed;fillColor=#d5e8d4;strokeColor=#82b366;" vertex="1" parent="1">
          <mxGeometry x="495" y="1091" width="10" height="10" as="geometry" />
        </mxCell>
        <mxCell id="SdchjvCyDopv-PI4UXvu-27" value="" style="endArrow=none;html=1;rounded=0;" edge="1" parent="1" source="SdchjvCyDopv-PI4UXvu-24" target="SdchjvCyDopv-PI4UXvu-26">
          <mxGeometry width="50" height="50" relative="1" as="geometry">
            <mxPoint x="504" y="1093" as="sourcePoint" />
            <mxPoint x="655" y="980" as="targetPoint" />
          </mxGeometry>
        </mxCell>
        <mxCell id="SdchjvCyDopv-PI4UXvu-26" value="" style="ellipse;whiteSpace=wrap;html=1;aspect=fixed;fillColor=#d5e8d4;strokeColor=#82b366;" vertex="1" parent="1">
          <mxGeometry x="520.5" y="1071" width="10" height="10" as="geometry" />
        </mxCell>
        <mxCell id="SdchjvCyDopv-PI4UXvu-29" value="" style="endArrow=none;html=1;rounded=0;" edge="1" parent="1" source="SdchjvCyDopv-PI4UXvu-26" target="SdchjvCyDopv-PI4UXvu-28">
          <mxGeometry width="50" height="50" relative="1" as="geometry">
            <mxPoint x="530" y="1073" as="sourcePoint" />
            <mxPoint x="655" y="980" as="targetPoint" />
          </mxGeometry>
        </mxCell>
        <mxCell id="SdchjvCyDopv-PI4UXvu-28" value="" style="ellipse;whiteSpace=wrap;html=1;aspect=fixed;fillColor=#d5e8d4;strokeColor=#82b366;" vertex="1" parent="1">
          <mxGeometry x="626.5" y="990" width="10" height="10" as="geometry" />
        </mxCell>
        <mxCell id="SdchjvCyDopv-PI4UXvu-30" value="#F2" style="text;html=1;align=center;verticalAlign=middle;whiteSpace=wrap;rounded=0;" vertex="1" parent="1">
          <mxGeometry x="620" y="990" width="60" height="30" as="geometry" />
        </mxCell>
        <mxCell id="Qvu88ucuOqAIbq_2tTQc-1" value="#Market" style="text;html=1;align=center;verticalAlign=middle;whiteSpace=wrap;rounded=0;fontSize=9;fontStyle=2" vertex="1" parent="1">
          <mxGeometry x="612" y="420" width="51" height="10" as="geometry" />
        </mxCell>
        <mxCell id="Qvu88ucuOqAIbq_2tTQc-2" value="#Trading Hub" style="text;html=1;align=center;verticalAlign=middle;whiteSpace=wrap;rounded=0;fontSize=9;fontStyle=2" vertex="1" parent="1">
          <mxGeometry x="582.5" y="408" width="67" height="10" as="geometry" />
        </mxCell>
      </root>
    </mxGraphModel>
  </diagram>
  <diagram id="EWs10Bc2tCSWLIHtXEUZ" name="Strategic Bid Detection">
    <mxGraphModel dx="830" dy="1527" grid="1" gridSize="10" guides="1" tooltips="1" connect="1" arrows="1" fold="1" page="1" pageScale="1" pageWidth="850" pageHeight="1100" math="0" shadow="0">
      <root>
        <mxCell id="0" />
        <mxCell id="1" parent="0" />
        <mxCell id="P_heWS73PsoNVlI9atCC-1" value="" style="rounded=1;whiteSpace=wrap;html=1;fillColor=none;dashed=1;dashPattern=8 8;" parent="1" vertex="1">
          <mxGeometry x="600" y="770" width="390" height="280" as="geometry" />
        </mxCell>
        <mxCell id="t_Q1t_2WmVFXvkJE9FLC-1" value="" style="endArrow=none;html=1;rounded=0;" parent="1" edge="1">
          <mxGeometry width="50" height="50" relative="1" as="geometry">
            <mxPoint x="180.75" y="298" as="sourcePoint" />
            <mxPoint x="680.75" y="298" as="targetPoint" />
          </mxGeometry>
        </mxCell>
        <mxCell id="t_Q1t_2WmVFXvkJE9FLC-2" value="" style="endArrow=none;html=1;rounded=0;" parent="1" edge="1">
          <mxGeometry width="50" height="50" relative="1" as="geometry">
            <mxPoint x="200.75" y="318" as="sourcePoint" />
            <mxPoint x="200.75" y="148" as="targetPoint" />
          </mxGeometry>
        </mxCell>
        <mxCell id="t_Q1t_2WmVFXvkJE9FLC-4" value="MW" style="text;html=1;align=center;verticalAlign=middle;whiteSpace=wrap;rounded=0;" parent="1" vertex="1">
          <mxGeometry x="942" y="264" width="41" height="30" as="geometry" />
        </mxCell>
        <mxCell id="t_Q1t_2WmVFXvkJE9FLC-5" value="$" style="text;html=1;align=center;verticalAlign=middle;whiteSpace=wrap;rounded=0;" parent="1" vertex="1">
          <mxGeometry x="175.75" y="128" width="20" height="30" as="geometry" />
        </mxCell>
        <mxCell id="t_Q1t_2WmVFXvkJE9FLC-6" value="time" style="text;html=1;align=center;verticalAlign=middle;whiteSpace=wrap;rounded=0;" parent="1" vertex="1">
          <mxGeometry x="660.75" y="298" width="41" height="30" as="geometry" />
        </mxCell>
        <mxCell id="t_Q1t_2WmVFXvkJE9FLC-8" value="" style="endArrow=none;html=1;rounded=0;" parent="1" edge="1">
          <mxGeometry width="50" height="50" relative="1" as="geometry">
            <mxPoint x="764" y="290" as="sourcePoint" />
            <mxPoint x="764" y="120" as="targetPoint" />
          </mxGeometry>
        </mxCell>
        <mxCell id="t_Q1t_2WmVFXvkJE9FLC-9" value="" style="endArrow=none;html=1;rounded=0;" parent="1" edge="1">
          <mxGeometry width="50" height="50" relative="1" as="geometry">
            <mxPoint x="754" y="280" as="sourcePoint" />
            <mxPoint x="944" y="280" as="targetPoint" />
          </mxGeometry>
        </mxCell>
        <mxCell id="t_Q1t_2WmVFXvkJE9FLC-10" value="" style="endArrow=none;html=1;rounded=0;fillColor=#e1d5e7;strokeColor=#9673a6;strokeWidth=2;" parent="1" edge="1">
          <mxGeometry width="50" height="50" relative="1" as="geometry">
            <mxPoint x="764" y="250" as="sourcePoint" />
            <mxPoint x="804" y="250" as="targetPoint" />
          </mxGeometry>
        </mxCell>
        <mxCell id="t_Q1t_2WmVFXvkJE9FLC-11" value="" style="endArrow=none;html=1;rounded=0;fillColor=#e1d5e7;strokeColor=#9673a6;strokeWidth=2;" parent="1" edge="1">
          <mxGeometry width="50" height="50" relative="1" as="geometry">
            <mxPoint x="804" y="220" as="sourcePoint" />
            <mxPoint x="924" y="220" as="targetPoint" />
          </mxGeometry>
        </mxCell>
        <mxCell id="t_Q1t_2WmVFXvkJE9FLC-12" value="" style="endArrow=none;html=1;rounded=0;fillColor=#e1d5e7;strokeColor=#9673a6;strokeWidth=2;" parent="1" edge="1">
          <mxGeometry width="50" height="50" relative="1" as="geometry">
            <mxPoint x="804" y="250" as="sourcePoint" />
            <mxPoint x="804" y="220" as="targetPoint" />
          </mxGeometry>
        </mxCell>
        <mxCell id="t_Q1t_2WmVFXvkJE9FLC-13" value="" style="endArrow=none;html=1;rounded=0;fillColor=#e1d5e7;strokeColor=#9673a6;strokeWidth=2;" parent="1" edge="1">
          <mxGeometry width="50" height="50" relative="1" as="geometry">
            <mxPoint x="924" y="190" as="sourcePoint" />
            <mxPoint x="944" y="190" as="targetPoint" />
          </mxGeometry>
        </mxCell>
        <mxCell id="t_Q1t_2WmVFXvkJE9FLC-14" value="" style="endArrow=none;html=1;rounded=0;fillColor=#e1d5e7;strokeColor=#9673a6;strokeWidth=2;" parent="1" edge="1">
          <mxGeometry width="50" height="50" relative="1" as="geometry">
            <mxPoint x="924" y="190" as="sourcePoint" />
            <mxPoint x="924" y="220" as="targetPoint" />
          </mxGeometry>
        </mxCell>
        <mxCell id="t_Q1t_2WmVFXvkJE9FLC-65" value="" style="endArrow=none;html=1;rounded=0;" parent="1" edge="1">
          <mxGeometry width="50" height="50" relative="1" as="geometry">
            <mxPoint x="190.75" y="311" as="sourcePoint" />
            <mxPoint x="290.75" y="168" as="targetPoint" />
          </mxGeometry>
        </mxCell>
        <mxCell id="t_Q1t_2WmVFXvkJE9FLC-368" value="" style="group" parent="1" connectable="0" vertex="1">
          <mxGeometry x="259.75" y="100" width="73" height="168" as="geometry" />
        </mxCell>
        <mxCell id="t_Q1t_2WmVFXvkJE9FLC-369" value="" style="endArrow=none;html=1;rounded=0;fillColor=#e1d5e7;strokeColor=#9673a6;strokeWidth=2;" parent="t_Q1t_2WmVFXvkJE9FLC-368" edge="1">
          <mxGeometry width="50" height="50" relative="1" as="geometry">
            <mxPoint y="168" as="sourcePoint" />
            <mxPoint x="20" y="138" as="targetPoint" />
          </mxGeometry>
        </mxCell>
        <mxCell id="t_Q1t_2WmVFXvkJE9FLC-370" value="" style="endArrow=none;html=1;rounded=0;fillColor=#e1d5e7;strokeColor=#9673a6;strokeWidth=2;" parent="t_Q1t_2WmVFXvkJE9FLC-368" edge="1">
          <mxGeometry width="50" height="50" relative="1" as="geometry">
            <mxPoint x="20" y="108" as="sourcePoint" />
            <mxPoint x="60" y="48" as="targetPoint" />
          </mxGeometry>
        </mxCell>
        <mxCell id="t_Q1t_2WmVFXvkJE9FLC-371" value="" style="endArrow=none;html=1;rounded=0;fillColor=#e1d5e7;strokeColor=#9673a6;strokeWidth=2;" parent="t_Q1t_2WmVFXvkJE9FLC-368" edge="1">
          <mxGeometry width="50" height="50" relative="1" as="geometry">
            <mxPoint x="20" y="138" as="sourcePoint" />
            <mxPoint x="20" y="108" as="targetPoint" />
          </mxGeometry>
        </mxCell>
        <mxCell id="t_Q1t_2WmVFXvkJE9FLC-372" value="" style="endArrow=none;html=1;rounded=0;fillColor=#e1d5e7;strokeColor=#9673a6;strokeWidth=2;" parent="t_Q1t_2WmVFXvkJE9FLC-368" edge="1">
          <mxGeometry width="50" height="50" relative="1" as="geometry">
            <mxPoint x="60" y="19" as="sourcePoint" />
            <mxPoint x="73" as="targetPoint" />
          </mxGeometry>
        </mxCell>
        <mxCell id="t_Q1t_2WmVFXvkJE9FLC-373" value="" style="endArrow=none;html=1;rounded=0;fillColor=#e1d5e7;strokeColor=#9673a6;strokeWidth=2;" parent="t_Q1t_2WmVFXvkJE9FLC-368" edge="1">
          <mxGeometry width="50" height="50" relative="1" as="geometry">
            <mxPoint x="60" y="18" as="sourcePoint" />
            <mxPoint x="60" y="48" as="targetPoint" />
          </mxGeometry>
        </mxCell>
        <mxCell id="t_Q1t_2WmVFXvkJE9FLC-374" value="" style="group" parent="1" connectable="0" vertex="1">
          <mxGeometry x="269.75" y="100" width="73" height="168" as="geometry" />
        </mxCell>
        <mxCell id="t_Q1t_2WmVFXvkJE9FLC-375" value="" style="endArrow=none;html=1;rounded=0;fillColor=#e1d5e7;strokeColor=#9673a6;strokeWidth=2;" parent="t_Q1t_2WmVFXvkJE9FLC-374" edge="1">
          <mxGeometry width="50" height="50" relative="1" as="geometry">
            <mxPoint y="168" as="sourcePoint" />
            <mxPoint x="20" y="138" as="targetPoint" />
          </mxGeometry>
        </mxCell>
        <mxCell id="t_Q1t_2WmVFXvkJE9FLC-376" value="" style="endArrow=none;html=1;rounded=0;fillColor=#e1d5e7;strokeColor=#9673a6;strokeWidth=2;" parent="t_Q1t_2WmVFXvkJE9FLC-374" edge="1">
          <mxGeometry width="50" height="50" relative="1" as="geometry">
            <mxPoint x="20" y="108" as="sourcePoint" />
            <mxPoint x="60" y="48" as="targetPoint" />
          </mxGeometry>
        </mxCell>
        <mxCell id="t_Q1t_2WmVFXvkJE9FLC-377" value="" style="endArrow=none;html=1;rounded=0;fillColor=#e1d5e7;strokeColor=#9673a6;strokeWidth=2;" parent="t_Q1t_2WmVFXvkJE9FLC-374" edge="1">
          <mxGeometry width="50" height="50" relative="1" as="geometry">
            <mxPoint x="20" y="138" as="sourcePoint" />
            <mxPoint x="20" y="108" as="targetPoint" />
          </mxGeometry>
        </mxCell>
        <mxCell id="t_Q1t_2WmVFXvkJE9FLC-378" value="" style="endArrow=none;html=1;rounded=0;fillColor=#e1d5e7;strokeColor=#9673a6;strokeWidth=2;" parent="t_Q1t_2WmVFXvkJE9FLC-374" edge="1">
          <mxGeometry width="50" height="50" relative="1" as="geometry">
            <mxPoint x="60" y="19" as="sourcePoint" />
            <mxPoint x="73" as="targetPoint" />
          </mxGeometry>
        </mxCell>
        <mxCell id="t_Q1t_2WmVFXvkJE9FLC-379" value="" style="endArrow=none;html=1;rounded=0;fillColor=#e1d5e7;strokeColor=#9673a6;strokeWidth=2;" parent="t_Q1t_2WmVFXvkJE9FLC-374" edge="1">
          <mxGeometry width="50" height="50" relative="1" as="geometry">
            <mxPoint x="60" y="18" as="sourcePoint" />
            <mxPoint x="60" y="48" as="targetPoint" />
          </mxGeometry>
        </mxCell>
        <mxCell id="t_Q1t_2WmVFXvkJE9FLC-380" value="" style="group" parent="1" connectable="0" vertex="1">
          <mxGeometry x="279.75" y="100" width="73" height="168" as="geometry" />
        </mxCell>
        <mxCell id="t_Q1t_2WmVFXvkJE9FLC-381" value="" style="endArrow=none;html=1;rounded=0;fillColor=#e1d5e7;strokeColor=#9673a6;strokeWidth=2;" parent="t_Q1t_2WmVFXvkJE9FLC-380" edge="1">
          <mxGeometry width="50" height="50" relative="1" as="geometry">
            <mxPoint y="168" as="sourcePoint" />
            <mxPoint x="20" y="138" as="targetPoint" />
          </mxGeometry>
        </mxCell>
        <mxCell id="t_Q1t_2WmVFXvkJE9FLC-382" value="" style="endArrow=none;html=1;rounded=0;fillColor=#e1d5e7;strokeColor=#9673a6;strokeWidth=2;" parent="t_Q1t_2WmVFXvkJE9FLC-380" edge="1">
          <mxGeometry width="50" height="50" relative="1" as="geometry">
            <mxPoint x="20" y="108" as="sourcePoint" />
            <mxPoint x="60" y="48" as="targetPoint" />
          </mxGeometry>
        </mxCell>
        <mxCell id="t_Q1t_2WmVFXvkJE9FLC-383" value="" style="endArrow=none;html=1;rounded=0;fillColor=#e1d5e7;strokeColor=#9673a6;strokeWidth=2;" parent="t_Q1t_2WmVFXvkJE9FLC-380" edge="1">
          <mxGeometry width="50" height="50" relative="1" as="geometry">
            <mxPoint x="20" y="138" as="sourcePoint" />
            <mxPoint x="20" y="108" as="targetPoint" />
          </mxGeometry>
        </mxCell>
        <mxCell id="t_Q1t_2WmVFXvkJE9FLC-384" value="" style="endArrow=none;html=1;rounded=0;fillColor=#e1d5e7;strokeColor=#9673a6;strokeWidth=2;" parent="t_Q1t_2WmVFXvkJE9FLC-380" edge="1">
          <mxGeometry width="50" height="50" relative="1" as="geometry">
            <mxPoint x="60" y="19" as="sourcePoint" />
            <mxPoint x="73" as="targetPoint" />
          </mxGeometry>
        </mxCell>
        <mxCell id="t_Q1t_2WmVFXvkJE9FLC-385" value="" style="endArrow=none;html=1;rounded=0;fillColor=#e1d5e7;strokeColor=#9673a6;strokeWidth=2;" parent="t_Q1t_2WmVFXvkJE9FLC-380" edge="1">
          <mxGeometry width="50" height="50" relative="1" as="geometry">
            <mxPoint x="60" y="18" as="sourcePoint" />
            <mxPoint x="60" y="48" as="targetPoint" />
          </mxGeometry>
        </mxCell>
        <mxCell id="t_Q1t_2WmVFXvkJE9FLC-386" value="" style="group" parent="1" connectable="0" vertex="1">
          <mxGeometry x="289.75" y="100" width="73" height="168" as="geometry" />
        </mxCell>
        <mxCell id="t_Q1t_2WmVFXvkJE9FLC-387" value="" style="endArrow=none;html=1;rounded=0;fillColor=#e1d5e7;strokeColor=#9673a6;strokeWidth=2;" parent="t_Q1t_2WmVFXvkJE9FLC-386" edge="1">
          <mxGeometry width="50" height="50" relative="1" as="geometry">
            <mxPoint y="168" as="sourcePoint" />
            <mxPoint x="20" y="138" as="targetPoint" />
          </mxGeometry>
        </mxCell>
        <mxCell id="t_Q1t_2WmVFXvkJE9FLC-388" value="" style="endArrow=none;html=1;rounded=0;fillColor=#e1d5e7;strokeColor=#9673a6;strokeWidth=2;" parent="t_Q1t_2WmVFXvkJE9FLC-386" edge="1">
          <mxGeometry width="50" height="50" relative="1" as="geometry">
            <mxPoint x="20" y="108" as="sourcePoint" />
            <mxPoint x="60" y="48" as="targetPoint" />
          </mxGeometry>
        </mxCell>
        <mxCell id="t_Q1t_2WmVFXvkJE9FLC-389" value="" style="endArrow=none;html=1;rounded=0;fillColor=#e1d5e7;strokeColor=#9673a6;strokeWidth=2;" parent="t_Q1t_2WmVFXvkJE9FLC-386" edge="1">
          <mxGeometry width="50" height="50" relative="1" as="geometry">
            <mxPoint x="20" y="138" as="sourcePoint" />
            <mxPoint x="20" y="108" as="targetPoint" />
          </mxGeometry>
        </mxCell>
        <mxCell id="t_Q1t_2WmVFXvkJE9FLC-390" value="" style="endArrow=none;html=1;rounded=0;fillColor=#e1d5e7;strokeColor=#9673a6;strokeWidth=2;" parent="t_Q1t_2WmVFXvkJE9FLC-386" edge="1">
          <mxGeometry width="50" height="50" relative="1" as="geometry">
            <mxPoint x="60" y="19" as="sourcePoint" />
            <mxPoint x="73" as="targetPoint" />
          </mxGeometry>
        </mxCell>
        <mxCell id="t_Q1t_2WmVFXvkJE9FLC-391" value="" style="endArrow=none;html=1;rounded=0;fillColor=#e1d5e7;strokeColor=#9673a6;strokeWidth=2;" parent="t_Q1t_2WmVFXvkJE9FLC-386" edge="1">
          <mxGeometry width="50" height="50" relative="1" as="geometry">
            <mxPoint x="60" y="18" as="sourcePoint" />
            <mxPoint x="60" y="48" as="targetPoint" />
          </mxGeometry>
        </mxCell>
        <mxCell id="t_Q1t_2WmVFXvkJE9FLC-392" value="" style="group" parent="1" connectable="0" vertex="1">
          <mxGeometry x="299.75" y="100" width="73" height="168" as="geometry" />
        </mxCell>
        <mxCell id="t_Q1t_2WmVFXvkJE9FLC-393" value="" style="endArrow=none;html=1;rounded=0;fillColor=#e1d5e7;strokeColor=#9673a6;strokeWidth=2;" parent="t_Q1t_2WmVFXvkJE9FLC-392" edge="1">
          <mxGeometry width="50" height="50" relative="1" as="geometry">
            <mxPoint y="168" as="sourcePoint" />
            <mxPoint x="20" y="138" as="targetPoint" />
          </mxGeometry>
        </mxCell>
        <mxCell id="t_Q1t_2WmVFXvkJE9FLC-394" value="" style="endArrow=none;html=1;rounded=0;fillColor=#e1d5e7;strokeColor=#9673a6;strokeWidth=2;" parent="t_Q1t_2WmVFXvkJE9FLC-392" edge="1">
          <mxGeometry width="50" height="50" relative="1" as="geometry">
            <mxPoint x="20" y="108" as="sourcePoint" />
            <mxPoint x="60" y="48" as="targetPoint" />
          </mxGeometry>
        </mxCell>
        <mxCell id="t_Q1t_2WmVFXvkJE9FLC-395" value="" style="endArrow=none;html=1;rounded=0;fillColor=#e1d5e7;strokeColor=#9673a6;strokeWidth=2;" parent="t_Q1t_2WmVFXvkJE9FLC-392" edge="1">
          <mxGeometry width="50" height="50" relative="1" as="geometry">
            <mxPoint x="20" y="138" as="sourcePoint" />
            <mxPoint x="20" y="108" as="targetPoint" />
          </mxGeometry>
        </mxCell>
        <mxCell id="t_Q1t_2WmVFXvkJE9FLC-396" value="" style="endArrow=none;html=1;rounded=0;fillColor=#e1d5e7;strokeColor=#9673a6;strokeWidth=2;" parent="t_Q1t_2WmVFXvkJE9FLC-392" edge="1">
          <mxGeometry width="50" height="50" relative="1" as="geometry">
            <mxPoint x="60" y="19" as="sourcePoint" />
            <mxPoint x="73" as="targetPoint" />
          </mxGeometry>
        </mxCell>
        <mxCell id="t_Q1t_2WmVFXvkJE9FLC-397" value="" style="endArrow=none;html=1;rounded=0;fillColor=#e1d5e7;strokeColor=#9673a6;strokeWidth=2;" parent="t_Q1t_2WmVFXvkJE9FLC-392" edge="1">
          <mxGeometry width="50" height="50" relative="1" as="geometry">
            <mxPoint x="60" y="18" as="sourcePoint" />
            <mxPoint x="60" y="48" as="targetPoint" />
          </mxGeometry>
        </mxCell>
        <mxCell id="t_Q1t_2WmVFXvkJE9FLC-398" value="" style="group" parent="1" connectable="0" vertex="1">
          <mxGeometry x="309.75" y="100" width="73" height="168" as="geometry" />
        </mxCell>
        <mxCell id="t_Q1t_2WmVFXvkJE9FLC-399" value="" style="endArrow=none;html=1;rounded=0;fillColor=#e1d5e7;strokeColor=#9673a6;strokeWidth=2;" parent="t_Q1t_2WmVFXvkJE9FLC-398" edge="1">
          <mxGeometry width="50" height="50" relative="1" as="geometry">
            <mxPoint y="168" as="sourcePoint" />
            <mxPoint x="20" y="138" as="targetPoint" />
          </mxGeometry>
        </mxCell>
        <mxCell id="t_Q1t_2WmVFXvkJE9FLC-400" value="" style="endArrow=none;html=1;rounded=0;fillColor=#e1d5e7;strokeColor=#9673a6;strokeWidth=2;" parent="t_Q1t_2WmVFXvkJE9FLC-398" edge="1">
          <mxGeometry width="50" height="50" relative="1" as="geometry">
            <mxPoint x="20" y="108" as="sourcePoint" />
            <mxPoint x="60" y="48" as="targetPoint" />
          </mxGeometry>
        </mxCell>
        <mxCell id="t_Q1t_2WmVFXvkJE9FLC-401" value="" style="endArrow=none;html=1;rounded=0;fillColor=#e1d5e7;strokeColor=#9673a6;strokeWidth=2;" parent="t_Q1t_2WmVFXvkJE9FLC-398" edge="1">
          <mxGeometry width="50" height="50" relative="1" as="geometry">
            <mxPoint x="20" y="138" as="sourcePoint" />
            <mxPoint x="20" y="108" as="targetPoint" />
          </mxGeometry>
        </mxCell>
        <mxCell id="t_Q1t_2WmVFXvkJE9FLC-402" value="" style="endArrow=none;html=1;rounded=0;fillColor=#e1d5e7;strokeColor=#9673a6;strokeWidth=2;" parent="t_Q1t_2WmVFXvkJE9FLC-398" edge="1">
          <mxGeometry width="50" height="50" relative="1" as="geometry">
            <mxPoint x="60" y="19" as="sourcePoint" />
            <mxPoint x="73" as="targetPoint" />
          </mxGeometry>
        </mxCell>
        <mxCell id="t_Q1t_2WmVFXvkJE9FLC-403" value="" style="endArrow=none;html=1;rounded=0;fillColor=#e1d5e7;strokeColor=#9673a6;strokeWidth=2;" parent="t_Q1t_2WmVFXvkJE9FLC-398" edge="1">
          <mxGeometry width="50" height="50" relative="1" as="geometry">
            <mxPoint x="60" y="18" as="sourcePoint" />
            <mxPoint x="60" y="48" as="targetPoint" />
          </mxGeometry>
        </mxCell>
        <mxCell id="t_Q1t_2WmVFXvkJE9FLC-404" value="" style="group" parent="1" connectable="0" vertex="1">
          <mxGeometry x="319.75" y="100" width="73" height="168" as="geometry" />
        </mxCell>
        <mxCell id="t_Q1t_2WmVFXvkJE9FLC-405" value="" style="endArrow=none;html=1;rounded=0;fillColor=#e1d5e7;strokeColor=#9673a6;strokeWidth=2;" parent="t_Q1t_2WmVFXvkJE9FLC-404" edge="1">
          <mxGeometry width="50" height="50" relative="1" as="geometry">
            <mxPoint y="168" as="sourcePoint" />
            <mxPoint x="20" y="138" as="targetPoint" />
          </mxGeometry>
        </mxCell>
        <mxCell id="t_Q1t_2WmVFXvkJE9FLC-406" value="" style="endArrow=none;html=1;rounded=0;fillColor=#e1d5e7;strokeColor=#9673a6;strokeWidth=2;" parent="t_Q1t_2WmVFXvkJE9FLC-404" edge="1">
          <mxGeometry width="50" height="50" relative="1" as="geometry">
            <mxPoint x="20" y="108" as="sourcePoint" />
            <mxPoint x="60" y="48" as="targetPoint" />
          </mxGeometry>
        </mxCell>
        <mxCell id="t_Q1t_2WmVFXvkJE9FLC-407" value="" style="endArrow=none;html=1;rounded=0;fillColor=#e1d5e7;strokeColor=#9673a6;strokeWidth=2;" parent="t_Q1t_2WmVFXvkJE9FLC-404" edge="1">
          <mxGeometry width="50" height="50" relative="1" as="geometry">
            <mxPoint x="20" y="138" as="sourcePoint" />
            <mxPoint x="20" y="108" as="targetPoint" />
          </mxGeometry>
        </mxCell>
        <mxCell id="t_Q1t_2WmVFXvkJE9FLC-408" value="" style="endArrow=none;html=1;rounded=0;fillColor=#e1d5e7;strokeColor=#9673a6;strokeWidth=2;" parent="t_Q1t_2WmVFXvkJE9FLC-404" edge="1">
          <mxGeometry width="50" height="50" relative="1" as="geometry">
            <mxPoint x="60" y="19" as="sourcePoint" />
            <mxPoint x="73" as="targetPoint" />
          </mxGeometry>
        </mxCell>
        <mxCell id="t_Q1t_2WmVFXvkJE9FLC-409" value="" style="endArrow=none;html=1;rounded=0;fillColor=#e1d5e7;strokeColor=#9673a6;strokeWidth=2;" parent="t_Q1t_2WmVFXvkJE9FLC-404" edge="1">
          <mxGeometry width="50" height="50" relative="1" as="geometry">
            <mxPoint x="60" y="18" as="sourcePoint" />
            <mxPoint x="60" y="48" as="targetPoint" />
          </mxGeometry>
        </mxCell>
        <mxCell id="t_Q1t_2WmVFXvkJE9FLC-410" value="" style="group" parent="1" connectable="0" vertex="1">
          <mxGeometry x="329.75" y="100" width="73" height="168" as="geometry" />
        </mxCell>
        <mxCell id="t_Q1t_2WmVFXvkJE9FLC-411" value="" style="endArrow=none;html=1;rounded=0;fillColor=#e1d5e7;strokeColor=#9673a6;strokeWidth=2;" parent="t_Q1t_2WmVFXvkJE9FLC-410" edge="1">
          <mxGeometry width="50" height="50" relative="1" as="geometry">
            <mxPoint y="168" as="sourcePoint" />
            <mxPoint x="20" y="138" as="targetPoint" />
          </mxGeometry>
        </mxCell>
        <mxCell id="t_Q1t_2WmVFXvkJE9FLC-412" value="" style="endArrow=none;html=1;rounded=0;fillColor=#e1d5e7;strokeColor=#9673a6;strokeWidth=2;" parent="t_Q1t_2WmVFXvkJE9FLC-410" edge="1">
          <mxGeometry width="50" height="50" relative="1" as="geometry">
            <mxPoint x="20" y="108" as="sourcePoint" />
            <mxPoint x="60" y="48" as="targetPoint" />
          </mxGeometry>
        </mxCell>
        <mxCell id="t_Q1t_2WmVFXvkJE9FLC-413" value="" style="endArrow=none;html=1;rounded=0;fillColor=#e1d5e7;strokeColor=#9673a6;strokeWidth=2;" parent="t_Q1t_2WmVFXvkJE9FLC-410" edge="1">
          <mxGeometry width="50" height="50" relative="1" as="geometry">
            <mxPoint x="20" y="138" as="sourcePoint" />
            <mxPoint x="20" y="108" as="targetPoint" />
          </mxGeometry>
        </mxCell>
        <mxCell id="t_Q1t_2WmVFXvkJE9FLC-414" value="" style="endArrow=none;html=1;rounded=0;fillColor=#e1d5e7;strokeColor=#9673a6;strokeWidth=2;" parent="t_Q1t_2WmVFXvkJE9FLC-410" edge="1">
          <mxGeometry width="50" height="50" relative="1" as="geometry">
            <mxPoint x="60" y="19" as="sourcePoint" />
            <mxPoint x="73" as="targetPoint" />
          </mxGeometry>
        </mxCell>
        <mxCell id="t_Q1t_2WmVFXvkJE9FLC-415" value="" style="endArrow=none;html=1;rounded=0;fillColor=#e1d5e7;strokeColor=#9673a6;strokeWidth=2;" parent="t_Q1t_2WmVFXvkJE9FLC-410" edge="1">
          <mxGeometry width="50" height="50" relative="1" as="geometry">
            <mxPoint x="60" y="18" as="sourcePoint" />
            <mxPoint x="60" y="48" as="targetPoint" />
          </mxGeometry>
        </mxCell>
        <mxCell id="t_Q1t_2WmVFXvkJE9FLC-416" value="" style="group" parent="1" connectable="0" vertex="1">
          <mxGeometry x="339.75" y="100" width="73" height="168" as="geometry" />
        </mxCell>
        <mxCell id="t_Q1t_2WmVFXvkJE9FLC-417" value="" style="endArrow=none;html=1;rounded=0;fillColor=#e1d5e7;strokeColor=#9673a6;strokeWidth=2;" parent="t_Q1t_2WmVFXvkJE9FLC-416" edge="1">
          <mxGeometry width="50" height="50" relative="1" as="geometry">
            <mxPoint y="168" as="sourcePoint" />
            <mxPoint x="20" y="138" as="targetPoint" />
          </mxGeometry>
        </mxCell>
        <mxCell id="t_Q1t_2WmVFXvkJE9FLC-418" value="" style="endArrow=none;html=1;rounded=0;fillColor=#e1d5e7;strokeColor=#9673a6;strokeWidth=2;" parent="t_Q1t_2WmVFXvkJE9FLC-416" edge="1">
          <mxGeometry width="50" height="50" relative="1" as="geometry">
            <mxPoint x="20" y="108" as="sourcePoint" />
            <mxPoint x="60" y="48" as="targetPoint" />
          </mxGeometry>
        </mxCell>
        <mxCell id="t_Q1t_2WmVFXvkJE9FLC-419" value="" style="endArrow=none;html=1;rounded=0;fillColor=#e1d5e7;strokeColor=#9673a6;strokeWidth=2;" parent="t_Q1t_2WmVFXvkJE9FLC-416" edge="1">
          <mxGeometry width="50" height="50" relative="1" as="geometry">
            <mxPoint x="20" y="138" as="sourcePoint" />
            <mxPoint x="20" y="108" as="targetPoint" />
          </mxGeometry>
        </mxCell>
        <mxCell id="t_Q1t_2WmVFXvkJE9FLC-420" value="" style="endArrow=none;html=1;rounded=0;fillColor=#e1d5e7;strokeColor=#9673a6;strokeWidth=2;" parent="t_Q1t_2WmVFXvkJE9FLC-416" edge="1">
          <mxGeometry width="50" height="50" relative="1" as="geometry">
            <mxPoint x="60" y="19" as="sourcePoint" />
            <mxPoint x="73" as="targetPoint" />
          </mxGeometry>
        </mxCell>
        <mxCell id="t_Q1t_2WmVFXvkJE9FLC-421" value="" style="endArrow=none;html=1;rounded=0;fillColor=#e1d5e7;strokeColor=#9673a6;strokeWidth=2;" parent="t_Q1t_2WmVFXvkJE9FLC-416" edge="1">
          <mxGeometry width="50" height="50" relative="1" as="geometry">
            <mxPoint x="60" y="18" as="sourcePoint" />
            <mxPoint x="60" y="48" as="targetPoint" />
          </mxGeometry>
        </mxCell>
        <mxCell id="t_Q1t_2WmVFXvkJE9FLC-422" value="" style="group" parent="1" connectable="0" vertex="1">
          <mxGeometry x="349.75" y="100" width="73" height="168" as="geometry" />
        </mxCell>
        <mxCell id="t_Q1t_2WmVFXvkJE9FLC-423" value="" style="endArrow=none;html=1;rounded=0;fillColor=#e1d5e7;strokeColor=#9673a6;strokeWidth=2;" parent="t_Q1t_2WmVFXvkJE9FLC-422" edge="1">
          <mxGeometry width="50" height="50" relative="1" as="geometry">
            <mxPoint y="168" as="sourcePoint" />
            <mxPoint x="20" y="138" as="targetPoint" />
          </mxGeometry>
        </mxCell>
        <mxCell id="t_Q1t_2WmVFXvkJE9FLC-424" value="" style="endArrow=none;html=1;rounded=0;fillColor=#e1d5e7;strokeColor=#9673a6;strokeWidth=2;" parent="t_Q1t_2WmVFXvkJE9FLC-422" edge="1">
          <mxGeometry width="50" height="50" relative="1" as="geometry">
            <mxPoint x="20" y="108" as="sourcePoint" />
            <mxPoint x="60" y="48" as="targetPoint" />
          </mxGeometry>
        </mxCell>
        <mxCell id="t_Q1t_2WmVFXvkJE9FLC-425" value="" style="endArrow=none;html=1;rounded=0;fillColor=#e1d5e7;strokeColor=#9673a6;strokeWidth=2;" parent="t_Q1t_2WmVFXvkJE9FLC-422" edge="1">
          <mxGeometry width="50" height="50" relative="1" as="geometry">
            <mxPoint x="20" y="138" as="sourcePoint" />
            <mxPoint x="20" y="108" as="targetPoint" />
          </mxGeometry>
        </mxCell>
        <mxCell id="t_Q1t_2WmVFXvkJE9FLC-426" value="" style="endArrow=none;html=1;rounded=0;fillColor=#e1d5e7;strokeColor=#9673a6;strokeWidth=2;" parent="t_Q1t_2WmVFXvkJE9FLC-422" edge="1">
          <mxGeometry width="50" height="50" relative="1" as="geometry">
            <mxPoint x="60" y="19" as="sourcePoint" />
            <mxPoint x="73" as="targetPoint" />
          </mxGeometry>
        </mxCell>
        <mxCell id="t_Q1t_2WmVFXvkJE9FLC-427" value="" style="endArrow=none;html=1;rounded=0;fillColor=#e1d5e7;strokeColor=#9673a6;strokeWidth=2;" parent="t_Q1t_2WmVFXvkJE9FLC-422" edge="1">
          <mxGeometry width="50" height="50" relative="1" as="geometry">
            <mxPoint x="60" y="18" as="sourcePoint" />
            <mxPoint x="60" y="48" as="targetPoint" />
          </mxGeometry>
        </mxCell>
        <mxCell id="t_Q1t_2WmVFXvkJE9FLC-524" value="" style="group" parent="1" connectable="0" vertex="1">
          <mxGeometry x="359.75" y="100" width="73" height="168" as="geometry" />
        </mxCell>
        <mxCell id="t_Q1t_2WmVFXvkJE9FLC-525" value="" style="endArrow=none;html=1;rounded=0;fillColor=#e1d5e7;strokeColor=#9673a6;strokeWidth=2;" parent="t_Q1t_2WmVFXvkJE9FLC-524" edge="1">
          <mxGeometry width="50" height="50" relative="1" as="geometry">
            <mxPoint y="168" as="sourcePoint" />
            <mxPoint x="20" y="138" as="targetPoint" />
          </mxGeometry>
        </mxCell>
        <mxCell id="t_Q1t_2WmVFXvkJE9FLC-526" value="" style="endArrow=none;html=1;rounded=0;fillColor=#e1d5e7;strokeColor=#9673a6;strokeWidth=2;" parent="t_Q1t_2WmVFXvkJE9FLC-524" edge="1">
          <mxGeometry width="50" height="50" relative="1" as="geometry">
            <mxPoint x="20" y="108" as="sourcePoint" />
            <mxPoint x="60" y="48" as="targetPoint" />
          </mxGeometry>
        </mxCell>
        <mxCell id="t_Q1t_2WmVFXvkJE9FLC-527" value="" style="endArrow=none;html=1;rounded=0;fillColor=#e1d5e7;strokeColor=#9673a6;strokeWidth=2;" parent="t_Q1t_2WmVFXvkJE9FLC-524" edge="1">
          <mxGeometry width="50" height="50" relative="1" as="geometry">
            <mxPoint x="20" y="138" as="sourcePoint" />
            <mxPoint x="20" y="108" as="targetPoint" />
          </mxGeometry>
        </mxCell>
        <mxCell id="t_Q1t_2WmVFXvkJE9FLC-528" value="" style="endArrow=none;html=1;rounded=0;fillColor=#e1d5e7;strokeColor=#9673a6;strokeWidth=2;" parent="t_Q1t_2WmVFXvkJE9FLC-524" edge="1">
          <mxGeometry width="50" height="50" relative="1" as="geometry">
            <mxPoint x="60" y="19" as="sourcePoint" />
            <mxPoint x="73" as="targetPoint" />
          </mxGeometry>
        </mxCell>
        <mxCell id="t_Q1t_2WmVFXvkJE9FLC-529" value="" style="endArrow=none;html=1;rounded=0;fillColor=#e1d5e7;strokeColor=#9673a6;strokeWidth=2;" parent="t_Q1t_2WmVFXvkJE9FLC-524" edge="1">
          <mxGeometry width="50" height="50" relative="1" as="geometry">
            <mxPoint x="60" y="18" as="sourcePoint" />
            <mxPoint x="60" y="48" as="targetPoint" />
          </mxGeometry>
        </mxCell>
        <mxCell id="t_Q1t_2WmVFXvkJE9FLC-530" value="" style="group" parent="1" connectable="0" vertex="1">
          <mxGeometry x="369.75" y="100" width="73" height="168" as="geometry" />
        </mxCell>
        <mxCell id="t_Q1t_2WmVFXvkJE9FLC-531" value="" style="endArrow=none;html=1;rounded=0;fillColor=#e1d5e7;strokeColor=#9673a6;strokeWidth=2;" parent="t_Q1t_2WmVFXvkJE9FLC-530" edge="1">
          <mxGeometry width="50" height="50" relative="1" as="geometry">
            <mxPoint y="168" as="sourcePoint" />
            <mxPoint x="20" y="138" as="targetPoint" />
          </mxGeometry>
        </mxCell>
        <mxCell id="t_Q1t_2WmVFXvkJE9FLC-532" value="" style="endArrow=none;html=1;rounded=0;fillColor=#e1d5e7;strokeColor=#9673a6;strokeWidth=2;" parent="t_Q1t_2WmVFXvkJE9FLC-530" edge="1">
          <mxGeometry width="50" height="50" relative="1" as="geometry">
            <mxPoint x="20" y="108" as="sourcePoint" />
            <mxPoint x="60" y="48" as="targetPoint" />
          </mxGeometry>
        </mxCell>
        <mxCell id="t_Q1t_2WmVFXvkJE9FLC-533" value="" style="endArrow=none;html=1;rounded=0;fillColor=#e1d5e7;strokeColor=#9673a6;strokeWidth=2;" parent="t_Q1t_2WmVFXvkJE9FLC-530" edge="1">
          <mxGeometry width="50" height="50" relative="1" as="geometry">
            <mxPoint x="20" y="138" as="sourcePoint" />
            <mxPoint x="20" y="108" as="targetPoint" />
          </mxGeometry>
        </mxCell>
        <mxCell id="t_Q1t_2WmVFXvkJE9FLC-534" value="" style="endArrow=none;html=1;rounded=0;fillColor=#e1d5e7;strokeColor=#9673a6;strokeWidth=2;" parent="t_Q1t_2WmVFXvkJE9FLC-530" edge="1">
          <mxGeometry width="50" height="50" relative="1" as="geometry">
            <mxPoint x="60" y="19" as="sourcePoint" />
            <mxPoint x="73" as="targetPoint" />
          </mxGeometry>
        </mxCell>
        <mxCell id="t_Q1t_2WmVFXvkJE9FLC-535" value="" style="endArrow=none;html=1;rounded=0;fillColor=#e1d5e7;strokeColor=#9673a6;strokeWidth=2;" parent="t_Q1t_2WmVFXvkJE9FLC-530" edge="1">
          <mxGeometry width="50" height="50" relative="1" as="geometry">
            <mxPoint x="60" y="18" as="sourcePoint" />
            <mxPoint x="60" y="48" as="targetPoint" />
          </mxGeometry>
        </mxCell>
        <mxCell id="t_Q1t_2WmVFXvkJE9FLC-536" value="" style="group" parent="1" connectable="0" vertex="1">
          <mxGeometry x="379.75" y="100" width="73" height="168" as="geometry" />
        </mxCell>
        <mxCell id="t_Q1t_2WmVFXvkJE9FLC-537" value="" style="endArrow=none;html=1;rounded=0;fillColor=#e1d5e7;strokeColor=#9673a6;strokeWidth=2;" parent="t_Q1t_2WmVFXvkJE9FLC-536" edge="1">
          <mxGeometry width="50" height="50" relative="1" as="geometry">
            <mxPoint y="168" as="sourcePoint" />
            <mxPoint x="20" y="138" as="targetPoint" />
          </mxGeometry>
        </mxCell>
        <mxCell id="t_Q1t_2WmVFXvkJE9FLC-538" value="" style="endArrow=none;html=1;rounded=0;fillColor=#e1d5e7;strokeColor=#9673a6;strokeWidth=2;" parent="t_Q1t_2WmVFXvkJE9FLC-536" edge="1">
          <mxGeometry width="50" height="50" relative="1" as="geometry">
            <mxPoint x="20" y="108" as="sourcePoint" />
            <mxPoint x="60" y="48" as="targetPoint" />
          </mxGeometry>
        </mxCell>
        <mxCell id="t_Q1t_2WmVFXvkJE9FLC-539" value="" style="endArrow=none;html=1;rounded=0;fillColor=#e1d5e7;strokeColor=#9673a6;strokeWidth=2;" parent="t_Q1t_2WmVFXvkJE9FLC-536" edge="1">
          <mxGeometry width="50" height="50" relative="1" as="geometry">
            <mxPoint x="20" y="138" as="sourcePoint" />
            <mxPoint x="20" y="108" as="targetPoint" />
          </mxGeometry>
        </mxCell>
        <mxCell id="t_Q1t_2WmVFXvkJE9FLC-540" value="" style="endArrow=none;html=1;rounded=0;fillColor=#e1d5e7;strokeColor=#9673a6;strokeWidth=2;" parent="t_Q1t_2WmVFXvkJE9FLC-536" edge="1">
          <mxGeometry width="50" height="50" relative="1" as="geometry">
            <mxPoint x="60" y="19" as="sourcePoint" />
            <mxPoint x="73" as="targetPoint" />
          </mxGeometry>
        </mxCell>
        <mxCell id="t_Q1t_2WmVFXvkJE9FLC-541" value="" style="endArrow=none;html=1;rounded=0;fillColor=#e1d5e7;strokeColor=#9673a6;strokeWidth=2;" parent="t_Q1t_2WmVFXvkJE9FLC-536" edge="1">
          <mxGeometry width="50" height="50" relative="1" as="geometry">
            <mxPoint x="60" y="18" as="sourcePoint" />
            <mxPoint x="60" y="48" as="targetPoint" />
          </mxGeometry>
        </mxCell>
        <mxCell id="t_Q1t_2WmVFXvkJE9FLC-542" value="" style="group" parent="1" connectable="0" vertex="1">
          <mxGeometry x="389.75" y="100" width="73" height="168" as="geometry" />
        </mxCell>
        <mxCell id="t_Q1t_2WmVFXvkJE9FLC-543" value="" style="endArrow=none;html=1;rounded=0;fillColor=#e1d5e7;strokeColor=#9673a6;strokeWidth=2;" parent="t_Q1t_2WmVFXvkJE9FLC-542" edge="1">
          <mxGeometry width="50" height="50" relative="1" as="geometry">
            <mxPoint y="168" as="sourcePoint" />
            <mxPoint x="20" y="138" as="targetPoint" />
          </mxGeometry>
        </mxCell>
        <mxCell id="t_Q1t_2WmVFXvkJE9FLC-544" value="" style="endArrow=none;html=1;rounded=0;fillColor=#e1d5e7;strokeColor=#9673a6;strokeWidth=2;" parent="t_Q1t_2WmVFXvkJE9FLC-542" edge="1">
          <mxGeometry width="50" height="50" relative="1" as="geometry">
            <mxPoint x="20" y="108" as="sourcePoint" />
            <mxPoint x="60" y="48" as="targetPoint" />
          </mxGeometry>
        </mxCell>
        <mxCell id="t_Q1t_2WmVFXvkJE9FLC-545" value="" style="endArrow=none;html=1;rounded=0;fillColor=#e1d5e7;strokeColor=#9673a6;strokeWidth=2;" parent="t_Q1t_2WmVFXvkJE9FLC-542" edge="1">
          <mxGeometry width="50" height="50" relative="1" as="geometry">
            <mxPoint x="20" y="138" as="sourcePoint" />
            <mxPoint x="20" y="108" as="targetPoint" />
          </mxGeometry>
        </mxCell>
        <mxCell id="t_Q1t_2WmVFXvkJE9FLC-546" value="" style="endArrow=none;html=1;rounded=0;fillColor=#e1d5e7;strokeColor=#9673a6;strokeWidth=2;" parent="t_Q1t_2WmVFXvkJE9FLC-542" edge="1">
          <mxGeometry width="50" height="50" relative="1" as="geometry">
            <mxPoint x="60" y="19" as="sourcePoint" />
            <mxPoint x="73" as="targetPoint" />
          </mxGeometry>
        </mxCell>
        <mxCell id="t_Q1t_2WmVFXvkJE9FLC-547" value="" style="endArrow=none;html=1;rounded=0;fillColor=#e1d5e7;strokeColor=#9673a6;strokeWidth=2;" parent="t_Q1t_2WmVFXvkJE9FLC-542" edge="1">
          <mxGeometry width="50" height="50" relative="1" as="geometry">
            <mxPoint x="60" y="18" as="sourcePoint" />
            <mxPoint x="60" y="48" as="targetPoint" />
          </mxGeometry>
        </mxCell>
        <mxCell id="t_Q1t_2WmVFXvkJE9FLC-548" value="" style="group" parent="1" connectable="0" vertex="1">
          <mxGeometry x="399.75" y="100" width="73" height="168" as="geometry" />
        </mxCell>
        <mxCell id="t_Q1t_2WmVFXvkJE9FLC-549" value="" style="endArrow=none;html=1;rounded=0;fillColor=#e1d5e7;strokeColor=#9673a6;strokeWidth=2;" parent="t_Q1t_2WmVFXvkJE9FLC-548" edge="1">
          <mxGeometry width="50" height="50" relative="1" as="geometry">
            <mxPoint y="168" as="sourcePoint" />
            <mxPoint x="20" y="138" as="targetPoint" />
          </mxGeometry>
        </mxCell>
        <mxCell id="t_Q1t_2WmVFXvkJE9FLC-550" value="" style="endArrow=none;html=1;rounded=0;fillColor=#e1d5e7;strokeColor=#9673a6;strokeWidth=2;" parent="t_Q1t_2WmVFXvkJE9FLC-548" edge="1">
          <mxGeometry width="50" height="50" relative="1" as="geometry">
            <mxPoint x="20" y="108" as="sourcePoint" />
            <mxPoint x="60" y="48" as="targetPoint" />
          </mxGeometry>
        </mxCell>
        <mxCell id="t_Q1t_2WmVFXvkJE9FLC-551" value="" style="endArrow=none;html=1;rounded=0;fillColor=#e1d5e7;strokeColor=#9673a6;strokeWidth=2;" parent="t_Q1t_2WmVFXvkJE9FLC-548" edge="1">
          <mxGeometry width="50" height="50" relative="1" as="geometry">
            <mxPoint x="20" y="138" as="sourcePoint" />
            <mxPoint x="20" y="108" as="targetPoint" />
          </mxGeometry>
        </mxCell>
        <mxCell id="t_Q1t_2WmVFXvkJE9FLC-552" value="" style="endArrow=none;html=1;rounded=0;fillColor=#e1d5e7;strokeColor=#9673a6;strokeWidth=2;" parent="t_Q1t_2WmVFXvkJE9FLC-548" edge="1">
          <mxGeometry width="50" height="50" relative="1" as="geometry">
            <mxPoint x="60" y="19" as="sourcePoint" />
            <mxPoint x="73" as="targetPoint" />
          </mxGeometry>
        </mxCell>
        <mxCell id="t_Q1t_2WmVFXvkJE9FLC-553" value="" style="endArrow=none;html=1;rounded=0;fillColor=#e1d5e7;strokeColor=#9673a6;strokeWidth=2;" parent="t_Q1t_2WmVFXvkJE9FLC-548" edge="1">
          <mxGeometry width="50" height="50" relative="1" as="geometry">
            <mxPoint x="60" y="18" as="sourcePoint" />
            <mxPoint x="60" y="48" as="targetPoint" />
          </mxGeometry>
        </mxCell>
        <mxCell id="t_Q1t_2WmVFXvkJE9FLC-554" value="" style="group" parent="1" connectable="0" vertex="1">
          <mxGeometry x="409.75" y="100" width="73" height="168" as="geometry" />
        </mxCell>
        <mxCell id="t_Q1t_2WmVFXvkJE9FLC-555" value="" style="endArrow=none;html=1;rounded=0;fillColor=#e1d5e7;strokeColor=#9673a6;strokeWidth=2;" parent="t_Q1t_2WmVFXvkJE9FLC-554" edge="1">
          <mxGeometry width="50" height="50" relative="1" as="geometry">
            <mxPoint y="168" as="sourcePoint" />
            <mxPoint x="20" y="138" as="targetPoint" />
          </mxGeometry>
        </mxCell>
        <mxCell id="t_Q1t_2WmVFXvkJE9FLC-556" value="" style="endArrow=none;html=1;rounded=0;fillColor=#e1d5e7;strokeColor=#9673a6;strokeWidth=2;" parent="t_Q1t_2WmVFXvkJE9FLC-554" edge="1">
          <mxGeometry width="50" height="50" relative="1" as="geometry">
            <mxPoint x="20" y="108" as="sourcePoint" />
            <mxPoint x="60" y="48" as="targetPoint" />
          </mxGeometry>
        </mxCell>
        <mxCell id="t_Q1t_2WmVFXvkJE9FLC-557" value="" style="endArrow=none;html=1;rounded=0;fillColor=#e1d5e7;strokeColor=#9673a6;strokeWidth=2;" parent="t_Q1t_2WmVFXvkJE9FLC-554" edge="1">
          <mxGeometry width="50" height="50" relative="1" as="geometry">
            <mxPoint x="20" y="138" as="sourcePoint" />
            <mxPoint x="20" y="108" as="targetPoint" />
          </mxGeometry>
        </mxCell>
        <mxCell id="t_Q1t_2WmVFXvkJE9FLC-558" value="" style="endArrow=none;html=1;rounded=0;fillColor=#e1d5e7;strokeColor=#9673a6;strokeWidth=2;" parent="t_Q1t_2WmVFXvkJE9FLC-554" edge="1">
          <mxGeometry width="50" height="50" relative="1" as="geometry">
            <mxPoint x="60" y="19" as="sourcePoint" />
            <mxPoint x="73" as="targetPoint" />
          </mxGeometry>
        </mxCell>
        <mxCell id="t_Q1t_2WmVFXvkJE9FLC-559" value="" style="endArrow=none;html=1;rounded=0;fillColor=#e1d5e7;strokeColor=#9673a6;strokeWidth=2;" parent="t_Q1t_2WmVFXvkJE9FLC-554" edge="1">
          <mxGeometry width="50" height="50" relative="1" as="geometry">
            <mxPoint x="60" y="18" as="sourcePoint" />
            <mxPoint x="60" y="48" as="targetPoint" />
          </mxGeometry>
        </mxCell>
        <mxCell id="t_Q1t_2WmVFXvkJE9FLC-560" value="" style="group" parent="1" connectable="0" vertex="1">
          <mxGeometry x="419.75" y="100" width="73" height="168" as="geometry" />
        </mxCell>
        <mxCell id="t_Q1t_2WmVFXvkJE9FLC-561" value="" style="endArrow=none;html=1;rounded=0;fillColor=#e1d5e7;strokeColor=#9673a6;strokeWidth=2;" parent="t_Q1t_2WmVFXvkJE9FLC-560" edge="1">
          <mxGeometry width="50" height="50" relative="1" as="geometry">
            <mxPoint y="168" as="sourcePoint" />
            <mxPoint x="20" y="138" as="targetPoint" />
          </mxGeometry>
        </mxCell>
        <mxCell id="t_Q1t_2WmVFXvkJE9FLC-562" value="" style="endArrow=none;html=1;rounded=0;fillColor=#e1d5e7;strokeColor=#9673a6;strokeWidth=2;" parent="t_Q1t_2WmVFXvkJE9FLC-560" edge="1">
          <mxGeometry width="50" height="50" relative="1" as="geometry">
            <mxPoint x="20" y="108" as="sourcePoint" />
            <mxPoint x="60" y="48" as="targetPoint" />
          </mxGeometry>
        </mxCell>
        <mxCell id="t_Q1t_2WmVFXvkJE9FLC-563" value="" style="endArrow=none;html=1;rounded=0;fillColor=#e1d5e7;strokeColor=#9673a6;strokeWidth=2;" parent="t_Q1t_2WmVFXvkJE9FLC-560" edge="1">
          <mxGeometry width="50" height="50" relative="1" as="geometry">
            <mxPoint x="20" y="138" as="sourcePoint" />
            <mxPoint x="20" y="108" as="targetPoint" />
          </mxGeometry>
        </mxCell>
        <mxCell id="t_Q1t_2WmVFXvkJE9FLC-564" value="" style="endArrow=none;html=1;rounded=0;fillColor=#e1d5e7;strokeColor=#9673a6;strokeWidth=2;" parent="t_Q1t_2WmVFXvkJE9FLC-560" edge="1">
          <mxGeometry width="50" height="50" relative="1" as="geometry">
            <mxPoint x="60" y="19" as="sourcePoint" />
            <mxPoint x="73" as="targetPoint" />
          </mxGeometry>
        </mxCell>
        <mxCell id="t_Q1t_2WmVFXvkJE9FLC-565" value="" style="endArrow=none;html=1;rounded=0;fillColor=#e1d5e7;strokeColor=#9673a6;strokeWidth=2;" parent="t_Q1t_2WmVFXvkJE9FLC-560" edge="1">
          <mxGeometry width="50" height="50" relative="1" as="geometry">
            <mxPoint x="60" y="18" as="sourcePoint" />
            <mxPoint x="60" y="48" as="targetPoint" />
          </mxGeometry>
        </mxCell>
        <mxCell id="t_Q1t_2WmVFXvkJE9FLC-566" value="" style="group" parent="1" connectable="0" vertex="1">
          <mxGeometry x="429.75" y="100" width="73" height="168" as="geometry" />
        </mxCell>
        <mxCell id="t_Q1t_2WmVFXvkJE9FLC-567" value="" style="endArrow=none;html=1;rounded=0;fillColor=#e1d5e7;strokeColor=#9673a6;strokeWidth=2;" parent="t_Q1t_2WmVFXvkJE9FLC-566" edge="1">
          <mxGeometry width="50" height="50" relative="1" as="geometry">
            <mxPoint y="168" as="sourcePoint" />
            <mxPoint x="20" y="138" as="targetPoint" />
          </mxGeometry>
        </mxCell>
        <mxCell id="t_Q1t_2WmVFXvkJE9FLC-568" value="" style="endArrow=none;html=1;rounded=0;fillColor=#e1d5e7;strokeColor=#9673a6;strokeWidth=2;" parent="t_Q1t_2WmVFXvkJE9FLC-566" edge="1">
          <mxGeometry width="50" height="50" relative="1" as="geometry">
            <mxPoint x="20" y="108" as="sourcePoint" />
            <mxPoint x="60" y="48" as="targetPoint" />
          </mxGeometry>
        </mxCell>
        <mxCell id="t_Q1t_2WmVFXvkJE9FLC-569" value="" style="endArrow=none;html=1;rounded=0;fillColor=#e1d5e7;strokeColor=#9673a6;strokeWidth=2;" parent="t_Q1t_2WmVFXvkJE9FLC-566" edge="1">
          <mxGeometry width="50" height="50" relative="1" as="geometry">
            <mxPoint x="20" y="138" as="sourcePoint" />
            <mxPoint x="20" y="108" as="targetPoint" />
          </mxGeometry>
        </mxCell>
        <mxCell id="t_Q1t_2WmVFXvkJE9FLC-570" value="" style="endArrow=none;html=1;rounded=0;fillColor=#e1d5e7;strokeColor=#9673a6;strokeWidth=2;" parent="t_Q1t_2WmVFXvkJE9FLC-566" edge="1">
          <mxGeometry width="50" height="50" relative="1" as="geometry">
            <mxPoint x="60" y="19" as="sourcePoint" />
            <mxPoint x="73" as="targetPoint" />
          </mxGeometry>
        </mxCell>
        <mxCell id="t_Q1t_2WmVFXvkJE9FLC-571" value="" style="endArrow=none;html=1;rounded=0;fillColor=#e1d5e7;strokeColor=#9673a6;strokeWidth=2;" parent="t_Q1t_2WmVFXvkJE9FLC-566" edge="1">
          <mxGeometry width="50" height="50" relative="1" as="geometry">
            <mxPoint x="60" y="18" as="sourcePoint" />
            <mxPoint x="60" y="48" as="targetPoint" />
          </mxGeometry>
        </mxCell>
        <mxCell id="t_Q1t_2WmVFXvkJE9FLC-572" value="" style="group" parent="1" connectable="0" vertex="1">
          <mxGeometry x="439.75" y="100" width="73" height="168" as="geometry" />
        </mxCell>
        <mxCell id="t_Q1t_2WmVFXvkJE9FLC-573" value="" style="endArrow=none;html=1;rounded=0;fillColor=#e1d5e7;strokeColor=#9673a6;strokeWidth=2;" parent="t_Q1t_2WmVFXvkJE9FLC-572" edge="1">
          <mxGeometry width="50" height="50" relative="1" as="geometry">
            <mxPoint y="168" as="sourcePoint" />
            <mxPoint x="20" y="138" as="targetPoint" />
          </mxGeometry>
        </mxCell>
        <mxCell id="t_Q1t_2WmVFXvkJE9FLC-574" value="" style="endArrow=none;html=1;rounded=0;fillColor=#e1d5e7;strokeColor=#9673a6;strokeWidth=2;" parent="t_Q1t_2WmVFXvkJE9FLC-572" edge="1">
          <mxGeometry width="50" height="50" relative="1" as="geometry">
            <mxPoint x="20" y="108" as="sourcePoint" />
            <mxPoint x="60" y="48" as="targetPoint" />
          </mxGeometry>
        </mxCell>
        <mxCell id="t_Q1t_2WmVFXvkJE9FLC-575" value="" style="endArrow=none;html=1;rounded=0;fillColor=#e1d5e7;strokeColor=#9673a6;strokeWidth=2;" parent="t_Q1t_2WmVFXvkJE9FLC-572" edge="1">
          <mxGeometry width="50" height="50" relative="1" as="geometry">
            <mxPoint x="20" y="138" as="sourcePoint" />
            <mxPoint x="20" y="108" as="targetPoint" />
          </mxGeometry>
        </mxCell>
        <mxCell id="t_Q1t_2WmVFXvkJE9FLC-576" value="" style="endArrow=none;html=1;rounded=0;fillColor=#e1d5e7;strokeColor=#9673a6;strokeWidth=2;" parent="t_Q1t_2WmVFXvkJE9FLC-572" edge="1">
          <mxGeometry width="50" height="50" relative="1" as="geometry">
            <mxPoint x="60" y="19" as="sourcePoint" />
            <mxPoint x="73" as="targetPoint" />
          </mxGeometry>
        </mxCell>
        <mxCell id="t_Q1t_2WmVFXvkJE9FLC-577" value="" style="endArrow=none;html=1;rounded=0;fillColor=#e1d5e7;strokeColor=#9673a6;strokeWidth=2;" parent="t_Q1t_2WmVFXvkJE9FLC-572" edge="1">
          <mxGeometry width="50" height="50" relative="1" as="geometry">
            <mxPoint x="60" y="18" as="sourcePoint" />
            <mxPoint x="60" y="48" as="targetPoint" />
          </mxGeometry>
        </mxCell>
        <mxCell id="t_Q1t_2WmVFXvkJE9FLC-578" value="" style="group" parent="1" connectable="0" vertex="1">
          <mxGeometry x="449.75" y="100" width="73" height="168" as="geometry" />
        </mxCell>
        <mxCell id="t_Q1t_2WmVFXvkJE9FLC-579" value="" style="endArrow=none;html=1;rounded=0;fillColor=#e1d5e7;strokeColor=#9673a6;strokeWidth=2;" parent="t_Q1t_2WmVFXvkJE9FLC-578" edge="1">
          <mxGeometry width="50" height="50" relative="1" as="geometry">
            <mxPoint y="168" as="sourcePoint" />
            <mxPoint x="20" y="138" as="targetPoint" />
          </mxGeometry>
        </mxCell>
        <mxCell id="t_Q1t_2WmVFXvkJE9FLC-580" value="" style="endArrow=none;html=1;rounded=0;fillColor=#e1d5e7;strokeColor=#9673a6;strokeWidth=2;" parent="t_Q1t_2WmVFXvkJE9FLC-578" edge="1">
          <mxGeometry width="50" height="50" relative="1" as="geometry">
            <mxPoint x="20" y="108" as="sourcePoint" />
            <mxPoint x="60" y="48" as="targetPoint" />
          </mxGeometry>
        </mxCell>
        <mxCell id="t_Q1t_2WmVFXvkJE9FLC-581" value="" style="endArrow=none;html=1;rounded=0;fillColor=#e1d5e7;strokeColor=#9673a6;strokeWidth=2;" parent="t_Q1t_2WmVFXvkJE9FLC-578" edge="1">
          <mxGeometry width="50" height="50" relative="1" as="geometry">
            <mxPoint x="20" y="138" as="sourcePoint" />
            <mxPoint x="20" y="108" as="targetPoint" />
          </mxGeometry>
        </mxCell>
        <mxCell id="t_Q1t_2WmVFXvkJE9FLC-582" value="" style="endArrow=none;html=1;rounded=0;fillColor=#e1d5e7;strokeColor=#9673a6;strokeWidth=2;" parent="t_Q1t_2WmVFXvkJE9FLC-578" edge="1">
          <mxGeometry width="50" height="50" relative="1" as="geometry">
            <mxPoint x="60" y="19" as="sourcePoint" />
            <mxPoint x="73" as="targetPoint" />
          </mxGeometry>
        </mxCell>
        <mxCell id="t_Q1t_2WmVFXvkJE9FLC-583" value="" style="endArrow=none;html=1;rounded=0;fillColor=#e1d5e7;strokeColor=#9673a6;strokeWidth=2;" parent="t_Q1t_2WmVFXvkJE9FLC-578" edge="1">
          <mxGeometry width="50" height="50" relative="1" as="geometry">
            <mxPoint x="60" y="18" as="sourcePoint" />
            <mxPoint x="60" y="48" as="targetPoint" />
          </mxGeometry>
        </mxCell>
        <mxCell id="t_Q1t_2WmVFXvkJE9FLC-584" value="" style="group" parent="1" connectable="0" vertex="1">
          <mxGeometry x="459.75" y="100" width="73" height="168" as="geometry" />
        </mxCell>
        <mxCell id="t_Q1t_2WmVFXvkJE9FLC-585" value="" style="endArrow=none;html=1;rounded=0;fillColor=#e1d5e7;strokeColor=#9673a6;strokeWidth=2;" parent="t_Q1t_2WmVFXvkJE9FLC-584" edge="1">
          <mxGeometry width="50" height="50" relative="1" as="geometry">
            <mxPoint y="168" as="sourcePoint" />
            <mxPoint x="20" y="138" as="targetPoint" />
          </mxGeometry>
        </mxCell>
        <mxCell id="t_Q1t_2WmVFXvkJE9FLC-586" value="" style="endArrow=none;html=1;rounded=0;fillColor=#e1d5e7;strokeColor=#9673a6;strokeWidth=2;" parent="t_Q1t_2WmVFXvkJE9FLC-584" edge="1">
          <mxGeometry width="50" height="50" relative="1" as="geometry">
            <mxPoint x="20" y="108" as="sourcePoint" />
            <mxPoint x="60" y="48" as="targetPoint" />
          </mxGeometry>
        </mxCell>
        <mxCell id="t_Q1t_2WmVFXvkJE9FLC-587" value="" style="endArrow=none;html=1;rounded=0;fillColor=#e1d5e7;strokeColor=#9673a6;strokeWidth=2;" parent="t_Q1t_2WmVFXvkJE9FLC-584" edge="1">
          <mxGeometry width="50" height="50" relative="1" as="geometry">
            <mxPoint x="20" y="138" as="sourcePoint" />
            <mxPoint x="20" y="108" as="targetPoint" />
          </mxGeometry>
        </mxCell>
        <mxCell id="t_Q1t_2WmVFXvkJE9FLC-588" value="" style="endArrow=none;html=1;rounded=0;fillColor=#e1d5e7;strokeColor=#9673a6;strokeWidth=2;" parent="t_Q1t_2WmVFXvkJE9FLC-584" edge="1">
          <mxGeometry width="50" height="50" relative="1" as="geometry">
            <mxPoint x="60" y="19" as="sourcePoint" />
            <mxPoint x="73" as="targetPoint" />
          </mxGeometry>
        </mxCell>
        <mxCell id="t_Q1t_2WmVFXvkJE9FLC-589" value="" style="endArrow=none;html=1;rounded=0;fillColor=#e1d5e7;strokeColor=#9673a6;strokeWidth=2;" parent="t_Q1t_2WmVFXvkJE9FLC-584" edge="1">
          <mxGeometry width="50" height="50" relative="1" as="geometry">
            <mxPoint x="60" y="18" as="sourcePoint" />
            <mxPoint x="60" y="48" as="targetPoint" />
          </mxGeometry>
        </mxCell>
        <mxCell id="t_Q1t_2WmVFXvkJE9FLC-590" value="" style="group" parent="1" connectable="0" vertex="1">
          <mxGeometry x="469.75" y="100" width="73" height="168" as="geometry" />
        </mxCell>
        <mxCell id="t_Q1t_2WmVFXvkJE9FLC-591" value="" style="endArrow=none;html=1;rounded=0;fillColor=#e1d5e7;strokeColor=#9673a6;strokeWidth=2;" parent="t_Q1t_2WmVFXvkJE9FLC-590" edge="1">
          <mxGeometry width="50" height="50" relative="1" as="geometry">
            <mxPoint y="168" as="sourcePoint" />
            <mxPoint x="20" y="138" as="targetPoint" />
          </mxGeometry>
        </mxCell>
        <mxCell id="t_Q1t_2WmVFXvkJE9FLC-592" value="" style="endArrow=none;html=1;rounded=0;fillColor=#e1d5e7;strokeColor=#9673a6;strokeWidth=2;" parent="t_Q1t_2WmVFXvkJE9FLC-590" edge="1">
          <mxGeometry width="50" height="50" relative="1" as="geometry">
            <mxPoint x="20" y="108" as="sourcePoint" />
            <mxPoint x="60" y="48" as="targetPoint" />
          </mxGeometry>
        </mxCell>
        <mxCell id="t_Q1t_2WmVFXvkJE9FLC-593" value="" style="endArrow=none;html=1;rounded=0;fillColor=#e1d5e7;strokeColor=#9673a6;strokeWidth=2;" parent="t_Q1t_2WmVFXvkJE9FLC-590" edge="1">
          <mxGeometry width="50" height="50" relative="1" as="geometry">
            <mxPoint x="20" y="138" as="sourcePoint" />
            <mxPoint x="20" y="108" as="targetPoint" />
          </mxGeometry>
        </mxCell>
        <mxCell id="t_Q1t_2WmVFXvkJE9FLC-594" value="" style="endArrow=none;html=1;rounded=0;fillColor=#e1d5e7;strokeColor=#9673a6;strokeWidth=2;" parent="t_Q1t_2WmVFXvkJE9FLC-590" edge="1">
          <mxGeometry width="50" height="50" relative="1" as="geometry">
            <mxPoint x="60" y="19" as="sourcePoint" />
            <mxPoint x="73" as="targetPoint" />
          </mxGeometry>
        </mxCell>
        <mxCell id="t_Q1t_2WmVFXvkJE9FLC-595" value="" style="endArrow=none;html=1;rounded=0;fillColor=#e1d5e7;strokeColor=#9673a6;strokeWidth=2;" parent="t_Q1t_2WmVFXvkJE9FLC-590" edge="1">
          <mxGeometry width="50" height="50" relative="1" as="geometry">
            <mxPoint x="60" y="18" as="sourcePoint" />
            <mxPoint x="60" y="48" as="targetPoint" />
          </mxGeometry>
        </mxCell>
        <mxCell id="t_Q1t_2WmVFXvkJE9FLC-596" value="" style="group" parent="1" connectable="0" vertex="1">
          <mxGeometry x="479.75" y="100" width="73" height="168" as="geometry" />
        </mxCell>
        <mxCell id="t_Q1t_2WmVFXvkJE9FLC-597" value="" style="endArrow=none;html=1;rounded=0;fillColor=#e1d5e7;strokeColor=#9673a6;strokeWidth=2;" parent="t_Q1t_2WmVFXvkJE9FLC-596" edge="1">
          <mxGeometry width="50" height="50" relative="1" as="geometry">
            <mxPoint y="168" as="sourcePoint" />
            <mxPoint x="20" y="138" as="targetPoint" />
          </mxGeometry>
        </mxCell>
        <mxCell id="t_Q1t_2WmVFXvkJE9FLC-598" value="" style="endArrow=none;html=1;rounded=0;fillColor=#e1d5e7;strokeColor=#9673a6;strokeWidth=2;" parent="t_Q1t_2WmVFXvkJE9FLC-596" edge="1">
          <mxGeometry width="50" height="50" relative="1" as="geometry">
            <mxPoint x="20" y="108" as="sourcePoint" />
            <mxPoint x="60" y="48" as="targetPoint" />
          </mxGeometry>
        </mxCell>
        <mxCell id="t_Q1t_2WmVFXvkJE9FLC-599" value="" style="endArrow=none;html=1;rounded=0;fillColor=#e1d5e7;strokeColor=#9673a6;strokeWidth=2;" parent="t_Q1t_2WmVFXvkJE9FLC-596" edge="1">
          <mxGeometry width="50" height="50" relative="1" as="geometry">
            <mxPoint x="20" y="138" as="sourcePoint" />
            <mxPoint x="20" y="108" as="targetPoint" />
          </mxGeometry>
        </mxCell>
        <mxCell id="t_Q1t_2WmVFXvkJE9FLC-600" value="" style="endArrow=none;html=1;rounded=0;fillColor=#e1d5e7;strokeColor=#9673a6;strokeWidth=2;" parent="t_Q1t_2WmVFXvkJE9FLC-596" edge="1">
          <mxGeometry width="50" height="50" relative="1" as="geometry">
            <mxPoint x="60" y="19" as="sourcePoint" />
            <mxPoint x="73" as="targetPoint" />
          </mxGeometry>
        </mxCell>
        <mxCell id="t_Q1t_2WmVFXvkJE9FLC-601" value="" style="endArrow=none;html=1;rounded=0;fillColor=#e1d5e7;strokeColor=#9673a6;strokeWidth=2;" parent="t_Q1t_2WmVFXvkJE9FLC-596" edge="1">
          <mxGeometry width="50" height="50" relative="1" as="geometry">
            <mxPoint x="60" y="18" as="sourcePoint" />
            <mxPoint x="60" y="48" as="targetPoint" />
          </mxGeometry>
        </mxCell>
        <mxCell id="t_Q1t_2WmVFXvkJE9FLC-602" value="" style="group" parent="1" connectable="0" vertex="1">
          <mxGeometry x="489.75" y="100" width="73" height="168" as="geometry" />
        </mxCell>
        <mxCell id="t_Q1t_2WmVFXvkJE9FLC-603" value="" style="endArrow=none;html=1;rounded=0;fillColor=#e1d5e7;strokeColor=#9673a6;strokeWidth=2;" parent="t_Q1t_2WmVFXvkJE9FLC-602" edge="1">
          <mxGeometry width="50" height="50" relative="1" as="geometry">
            <mxPoint y="168" as="sourcePoint" />
            <mxPoint x="20" y="138" as="targetPoint" />
          </mxGeometry>
        </mxCell>
        <mxCell id="t_Q1t_2WmVFXvkJE9FLC-604" value="" style="endArrow=none;html=1;rounded=0;fillColor=#e1d5e7;strokeColor=#9673a6;strokeWidth=2;" parent="t_Q1t_2WmVFXvkJE9FLC-602" edge="1">
          <mxGeometry width="50" height="50" relative="1" as="geometry">
            <mxPoint x="20" y="108" as="sourcePoint" />
            <mxPoint x="60" y="48" as="targetPoint" />
          </mxGeometry>
        </mxCell>
        <mxCell id="t_Q1t_2WmVFXvkJE9FLC-605" value="" style="endArrow=none;html=1;rounded=0;fillColor=#e1d5e7;strokeColor=#9673a6;strokeWidth=2;" parent="t_Q1t_2WmVFXvkJE9FLC-602" edge="1">
          <mxGeometry width="50" height="50" relative="1" as="geometry">
            <mxPoint x="20" y="138" as="sourcePoint" />
            <mxPoint x="20" y="108" as="targetPoint" />
          </mxGeometry>
        </mxCell>
        <mxCell id="t_Q1t_2WmVFXvkJE9FLC-606" value="" style="endArrow=none;html=1;rounded=0;fillColor=#e1d5e7;strokeColor=#9673a6;strokeWidth=2;" parent="t_Q1t_2WmVFXvkJE9FLC-602" edge="1">
          <mxGeometry width="50" height="50" relative="1" as="geometry">
            <mxPoint x="60" y="19" as="sourcePoint" />
            <mxPoint x="73" as="targetPoint" />
          </mxGeometry>
        </mxCell>
        <mxCell id="t_Q1t_2WmVFXvkJE9FLC-607" value="" style="endArrow=none;html=1;rounded=0;fillColor=#e1d5e7;strokeColor=#9673a6;strokeWidth=2;" parent="t_Q1t_2WmVFXvkJE9FLC-602" edge="1">
          <mxGeometry width="50" height="50" relative="1" as="geometry">
            <mxPoint x="60" y="18" as="sourcePoint" />
            <mxPoint x="60" y="48" as="targetPoint" />
          </mxGeometry>
        </mxCell>
        <mxCell id="t_Q1t_2WmVFXvkJE9FLC-620" value="" style="group" parent="1" connectable="0" vertex="1">
          <mxGeometry x="499.75" y="100" width="73" height="168" as="geometry" />
        </mxCell>
        <mxCell id="t_Q1t_2WmVFXvkJE9FLC-621" value="" style="endArrow=none;html=1;rounded=0;fillColor=#e1d5e7;strokeColor=#9673a6;strokeWidth=2;" parent="t_Q1t_2WmVFXvkJE9FLC-620" edge="1">
          <mxGeometry width="50" height="50" relative="1" as="geometry">
            <mxPoint y="168" as="sourcePoint" />
            <mxPoint x="20" y="138" as="targetPoint" />
          </mxGeometry>
        </mxCell>
        <mxCell id="t_Q1t_2WmVFXvkJE9FLC-622" value="" style="endArrow=none;html=1;rounded=0;fillColor=#e1d5e7;strokeColor=#9673a6;strokeWidth=2;" parent="t_Q1t_2WmVFXvkJE9FLC-620" edge="1">
          <mxGeometry width="50" height="50" relative="1" as="geometry">
            <mxPoint x="20" y="108" as="sourcePoint" />
            <mxPoint x="40" y="78" as="targetPoint" />
          </mxGeometry>
        </mxCell>
        <mxCell id="t_Q1t_2WmVFXvkJE9FLC-623" value="" style="endArrow=none;html=1;rounded=0;fillColor=#e1d5e7;strokeColor=#9673a6;strokeWidth=2;" parent="t_Q1t_2WmVFXvkJE9FLC-620" edge="1">
          <mxGeometry width="50" height="50" relative="1" as="geometry">
            <mxPoint x="20" y="138" as="sourcePoint" />
            <mxPoint x="20" y="108" as="targetPoint" />
          </mxGeometry>
        </mxCell>
        <mxCell id="t_Q1t_2WmVFXvkJE9FLC-624" value="" style="endArrow=none;html=1;rounded=0;fillColor=#ffe6cc;strokeColor=#d79b00;strokeWidth=2;" parent="t_Q1t_2WmVFXvkJE9FLC-620" edge="1">
          <mxGeometry width="50" height="50" relative="1" as="geometry">
            <mxPoint x="40" y="-26" as="sourcePoint" />
            <mxPoint x="70" y="-62" as="targetPoint" />
          </mxGeometry>
        </mxCell>
        <mxCell id="t_Q1t_2WmVFXvkJE9FLC-625" value="" style="endArrow=none;html=1;rounded=0;fillColor=#ffe6cc;strokeColor=#d79b00;strokeWidth=2;" parent="t_Q1t_2WmVFXvkJE9FLC-620" edge="1">
          <mxGeometry width="50" height="50" relative="1" as="geometry">
            <mxPoint x="40" y="-26" as="sourcePoint" />
            <mxPoint x="40" y="79" as="targetPoint" />
          </mxGeometry>
        </mxCell>
        <mxCell id="t_Q1t_2WmVFXvkJE9FLC-632" value="" style="group" parent="1" connectable="0" vertex="1">
          <mxGeometry x="509.75" y="100" width="73" height="168" as="geometry" />
        </mxCell>
        <mxCell id="t_Q1t_2WmVFXvkJE9FLC-633" value="" style="endArrow=none;html=1;rounded=0;fillColor=#e1d5e7;strokeColor=#9673a6;strokeWidth=2;" parent="t_Q1t_2WmVFXvkJE9FLC-632" edge="1">
          <mxGeometry width="50" height="50" relative="1" as="geometry">
            <mxPoint y="168" as="sourcePoint" />
            <mxPoint x="20" y="138" as="targetPoint" />
          </mxGeometry>
        </mxCell>
        <mxCell id="t_Q1t_2WmVFXvkJE9FLC-634" value="" style="endArrow=none;html=1;rounded=0;fillColor=#e1d5e7;strokeColor=#9673a6;strokeWidth=2;" parent="t_Q1t_2WmVFXvkJE9FLC-632" edge="1">
          <mxGeometry width="50" height="50" relative="1" as="geometry">
            <mxPoint x="20" y="108" as="sourcePoint" />
            <mxPoint x="60" y="48" as="targetPoint" />
          </mxGeometry>
        </mxCell>
        <mxCell id="t_Q1t_2WmVFXvkJE9FLC-635" value="" style="endArrow=none;html=1;rounded=0;fillColor=#e1d5e7;strokeColor=#9673a6;strokeWidth=2;" parent="t_Q1t_2WmVFXvkJE9FLC-632" edge="1">
          <mxGeometry width="50" height="50" relative="1" as="geometry">
            <mxPoint x="20" y="138" as="sourcePoint" />
            <mxPoint x="20" y="108" as="targetPoint" />
          </mxGeometry>
        </mxCell>
        <mxCell id="t_Q1t_2WmVFXvkJE9FLC-636" value="" style="endArrow=none;html=1;rounded=0;fillColor=#e1d5e7;strokeColor=#9673a6;strokeWidth=2;" parent="t_Q1t_2WmVFXvkJE9FLC-632" edge="1">
          <mxGeometry width="50" height="50" relative="1" as="geometry">
            <mxPoint x="60" y="19" as="sourcePoint" />
            <mxPoint x="73" as="targetPoint" />
          </mxGeometry>
        </mxCell>
        <mxCell id="t_Q1t_2WmVFXvkJE9FLC-637" value="" style="endArrow=none;html=1;rounded=0;fillColor=#e1d5e7;strokeColor=#9673a6;strokeWidth=2;" parent="t_Q1t_2WmVFXvkJE9FLC-632" edge="1">
          <mxGeometry width="50" height="50" relative="1" as="geometry">
            <mxPoint x="60" y="18" as="sourcePoint" />
            <mxPoint x="60" y="48" as="targetPoint" />
          </mxGeometry>
        </mxCell>
        <mxCell id="t_Q1t_2WmVFXvkJE9FLC-638" value="" style="group" parent="1" connectable="0" vertex="1">
          <mxGeometry x="519.75" y="100" width="73" height="168" as="geometry" />
        </mxCell>
        <mxCell id="t_Q1t_2WmVFXvkJE9FLC-639" value="" style="endArrow=none;html=1;rounded=0;fillColor=#e1d5e7;strokeColor=#9673a6;strokeWidth=2;" parent="t_Q1t_2WmVFXvkJE9FLC-638" edge="1">
          <mxGeometry width="50" height="50" relative="1" as="geometry">
            <mxPoint y="168" as="sourcePoint" />
            <mxPoint x="20" y="138" as="targetPoint" />
          </mxGeometry>
        </mxCell>
        <mxCell id="t_Q1t_2WmVFXvkJE9FLC-640" value="" style="endArrow=none;html=1;rounded=0;fillColor=#e1d5e7;strokeColor=#9673a6;strokeWidth=2;" parent="t_Q1t_2WmVFXvkJE9FLC-638" edge="1">
          <mxGeometry width="50" height="50" relative="1" as="geometry">
            <mxPoint x="20" y="108" as="sourcePoint" />
            <mxPoint x="60" y="48" as="targetPoint" />
          </mxGeometry>
        </mxCell>
        <mxCell id="t_Q1t_2WmVFXvkJE9FLC-641" value="" style="endArrow=none;html=1;rounded=0;fillColor=#e1d5e7;strokeColor=#9673a6;strokeWidth=2;" parent="t_Q1t_2WmVFXvkJE9FLC-638" edge="1">
          <mxGeometry width="50" height="50" relative="1" as="geometry">
            <mxPoint x="20" y="138" as="sourcePoint" />
            <mxPoint x="20" y="108" as="targetPoint" />
          </mxGeometry>
        </mxCell>
        <mxCell id="t_Q1t_2WmVFXvkJE9FLC-642" value="" style="endArrow=none;html=1;rounded=0;fillColor=#e1d5e7;strokeColor=#9673a6;strokeWidth=2;" parent="t_Q1t_2WmVFXvkJE9FLC-638" edge="1">
          <mxGeometry width="50" height="50" relative="1" as="geometry">
            <mxPoint x="60" y="19" as="sourcePoint" />
            <mxPoint x="73" as="targetPoint" />
          </mxGeometry>
        </mxCell>
        <mxCell id="t_Q1t_2WmVFXvkJE9FLC-643" value="" style="endArrow=none;html=1;rounded=0;fillColor=#e1d5e7;strokeColor=#9673a6;strokeWidth=2;" parent="t_Q1t_2WmVFXvkJE9FLC-638" edge="1">
          <mxGeometry width="50" height="50" relative="1" as="geometry">
            <mxPoint x="60" y="18" as="sourcePoint" />
            <mxPoint x="60" y="48" as="targetPoint" />
          </mxGeometry>
        </mxCell>
        <mxCell id="t_Q1t_2WmVFXvkJE9FLC-644" value="" style="group" parent="1" connectable="0" vertex="1">
          <mxGeometry x="529.75" y="100" width="73" height="168" as="geometry" />
        </mxCell>
        <mxCell id="t_Q1t_2WmVFXvkJE9FLC-645" value="" style="endArrow=none;html=1;rounded=0;fillColor=#e1d5e7;strokeColor=#9673a6;strokeWidth=2;" parent="t_Q1t_2WmVFXvkJE9FLC-644" edge="1">
          <mxGeometry width="50" height="50" relative="1" as="geometry">
            <mxPoint y="168" as="sourcePoint" />
            <mxPoint x="20" y="138" as="targetPoint" />
          </mxGeometry>
        </mxCell>
        <mxCell id="t_Q1t_2WmVFXvkJE9FLC-646" value="" style="endArrow=none;html=1;rounded=0;fillColor=#e1d5e7;strokeColor=#9673a6;strokeWidth=2;" parent="t_Q1t_2WmVFXvkJE9FLC-644" edge="1">
          <mxGeometry width="50" height="50" relative="1" as="geometry">
            <mxPoint x="20" y="108" as="sourcePoint" />
            <mxPoint x="60" y="48" as="targetPoint" />
          </mxGeometry>
        </mxCell>
        <mxCell id="t_Q1t_2WmVFXvkJE9FLC-647" value="" style="endArrow=none;html=1;rounded=0;fillColor=#e1d5e7;strokeColor=#9673a6;strokeWidth=2;" parent="t_Q1t_2WmVFXvkJE9FLC-644" edge="1">
          <mxGeometry width="50" height="50" relative="1" as="geometry">
            <mxPoint x="20" y="138" as="sourcePoint" />
            <mxPoint x="20" y="108" as="targetPoint" />
          </mxGeometry>
        </mxCell>
        <mxCell id="t_Q1t_2WmVFXvkJE9FLC-648" value="" style="endArrow=none;html=1;rounded=0;fillColor=#e1d5e7;strokeColor=#9673a6;strokeWidth=2;" parent="t_Q1t_2WmVFXvkJE9FLC-644" edge="1">
          <mxGeometry width="50" height="50" relative="1" as="geometry">
            <mxPoint x="60" y="19" as="sourcePoint" />
            <mxPoint x="73" as="targetPoint" />
          </mxGeometry>
        </mxCell>
        <mxCell id="t_Q1t_2WmVFXvkJE9FLC-649" value="" style="endArrow=none;html=1;rounded=0;fillColor=#e1d5e7;strokeColor=#9673a6;strokeWidth=2;" parent="t_Q1t_2WmVFXvkJE9FLC-644" edge="1">
          <mxGeometry width="50" height="50" relative="1" as="geometry">
            <mxPoint x="60" y="18" as="sourcePoint" />
            <mxPoint x="60" y="48" as="targetPoint" />
          </mxGeometry>
        </mxCell>
        <mxCell id="t_Q1t_2WmVFXvkJE9FLC-650" value="" style="group" parent="1" connectable="0" vertex="1">
          <mxGeometry x="539.75" y="100" width="73" height="168" as="geometry" />
        </mxCell>
        <mxCell id="t_Q1t_2WmVFXvkJE9FLC-651" value="" style="endArrow=none;html=1;rounded=0;fillColor=#e1d5e7;strokeColor=#9673a6;strokeWidth=2;" parent="t_Q1t_2WmVFXvkJE9FLC-650" edge="1">
          <mxGeometry width="50" height="50" relative="1" as="geometry">
            <mxPoint y="168" as="sourcePoint" />
            <mxPoint x="20" y="138" as="targetPoint" />
          </mxGeometry>
        </mxCell>
        <mxCell id="t_Q1t_2WmVFXvkJE9FLC-652" value="" style="endArrow=none;html=1;rounded=0;fillColor=#e1d5e7;strokeColor=#9673a6;strokeWidth=2;" parent="t_Q1t_2WmVFXvkJE9FLC-650" edge="1">
          <mxGeometry width="50" height="50" relative="1" as="geometry">
            <mxPoint x="20" y="108" as="sourcePoint" />
            <mxPoint x="60" y="48" as="targetPoint" />
          </mxGeometry>
        </mxCell>
        <mxCell id="t_Q1t_2WmVFXvkJE9FLC-653" value="" style="endArrow=none;html=1;rounded=0;fillColor=#e1d5e7;strokeColor=#9673a6;strokeWidth=2;" parent="t_Q1t_2WmVFXvkJE9FLC-650" edge="1">
          <mxGeometry width="50" height="50" relative="1" as="geometry">
            <mxPoint x="20" y="138" as="sourcePoint" />
            <mxPoint x="20" y="108" as="targetPoint" />
          </mxGeometry>
        </mxCell>
        <mxCell id="t_Q1t_2WmVFXvkJE9FLC-654" value="" style="endArrow=none;html=1;rounded=0;fillColor=#e1d5e7;strokeColor=#9673a6;strokeWidth=2;" parent="t_Q1t_2WmVFXvkJE9FLC-650" edge="1">
          <mxGeometry width="50" height="50" relative="1" as="geometry">
            <mxPoint x="60" y="19" as="sourcePoint" />
            <mxPoint x="73" as="targetPoint" />
          </mxGeometry>
        </mxCell>
        <mxCell id="t_Q1t_2WmVFXvkJE9FLC-655" value="" style="endArrow=none;html=1;rounded=0;fillColor=#e1d5e7;strokeColor=#9673a6;strokeWidth=2;" parent="t_Q1t_2WmVFXvkJE9FLC-650" edge="1">
          <mxGeometry width="50" height="50" relative="1" as="geometry">
            <mxPoint x="60" y="18" as="sourcePoint" />
            <mxPoint x="60" y="48" as="targetPoint" />
          </mxGeometry>
        </mxCell>
        <mxCell id="t_Q1t_2WmVFXvkJE9FLC-656" value="" style="group" parent="1" connectable="0" vertex="1">
          <mxGeometry x="549.75" y="100" width="73" height="168" as="geometry" />
        </mxCell>
        <mxCell id="t_Q1t_2WmVFXvkJE9FLC-657" value="" style="endArrow=none;html=1;rounded=0;fillColor=#e1d5e7;strokeColor=#9673a6;strokeWidth=2;" parent="t_Q1t_2WmVFXvkJE9FLC-656" edge="1">
          <mxGeometry width="50" height="50" relative="1" as="geometry">
            <mxPoint y="168" as="sourcePoint" />
            <mxPoint x="20" y="138" as="targetPoint" />
          </mxGeometry>
        </mxCell>
        <mxCell id="t_Q1t_2WmVFXvkJE9FLC-658" value="" style="endArrow=none;html=1;rounded=0;fillColor=#e1d5e7;strokeColor=#9673a6;strokeWidth=2;" parent="t_Q1t_2WmVFXvkJE9FLC-656" edge="1">
          <mxGeometry width="50" height="50" relative="1" as="geometry">
            <mxPoint x="20" y="108" as="sourcePoint" />
            <mxPoint x="60" y="48" as="targetPoint" />
          </mxGeometry>
        </mxCell>
        <mxCell id="t_Q1t_2WmVFXvkJE9FLC-659" value="" style="endArrow=none;html=1;rounded=0;fillColor=#e1d5e7;strokeColor=#9673a6;strokeWidth=2;" parent="t_Q1t_2WmVFXvkJE9FLC-656" edge="1">
          <mxGeometry width="50" height="50" relative="1" as="geometry">
            <mxPoint x="20" y="138" as="sourcePoint" />
            <mxPoint x="20" y="108" as="targetPoint" />
          </mxGeometry>
        </mxCell>
        <mxCell id="t_Q1t_2WmVFXvkJE9FLC-660" value="" style="endArrow=none;html=1;rounded=0;fillColor=#e1d5e7;strokeColor=#9673a6;strokeWidth=2;" parent="t_Q1t_2WmVFXvkJE9FLC-656" edge="1">
          <mxGeometry width="50" height="50" relative="1" as="geometry">
            <mxPoint x="60" y="19" as="sourcePoint" />
            <mxPoint x="73" as="targetPoint" />
          </mxGeometry>
        </mxCell>
        <mxCell id="t_Q1t_2WmVFXvkJE9FLC-661" value="" style="endArrow=none;html=1;rounded=0;fillColor=#e1d5e7;strokeColor=#9673a6;strokeWidth=2;" parent="t_Q1t_2WmVFXvkJE9FLC-656" edge="1">
          <mxGeometry width="50" height="50" relative="1" as="geometry">
            <mxPoint x="60" y="18" as="sourcePoint" />
            <mxPoint x="60" y="48" as="targetPoint" />
          </mxGeometry>
        </mxCell>
        <mxCell id="t_Q1t_2WmVFXvkJE9FLC-662" value="" style="group" parent="1" connectable="0" vertex="1">
          <mxGeometry x="559.75" y="100" width="73" height="168" as="geometry" />
        </mxCell>
        <mxCell id="t_Q1t_2WmVFXvkJE9FLC-663" value="" style="endArrow=none;html=1;rounded=0;fillColor=#e1d5e7;strokeColor=#9673a6;strokeWidth=2;" parent="t_Q1t_2WmVFXvkJE9FLC-662" edge="1">
          <mxGeometry width="50" height="50" relative="1" as="geometry">
            <mxPoint y="168" as="sourcePoint" />
            <mxPoint x="20" y="138" as="targetPoint" />
          </mxGeometry>
        </mxCell>
        <mxCell id="t_Q1t_2WmVFXvkJE9FLC-664" value="" style="endArrow=none;html=1;rounded=0;fillColor=#e1d5e7;strokeColor=#9673a6;strokeWidth=2;" parent="t_Q1t_2WmVFXvkJE9FLC-662" edge="1">
          <mxGeometry width="50" height="50" relative="1" as="geometry">
            <mxPoint x="20" y="108" as="sourcePoint" />
            <mxPoint x="60" y="48" as="targetPoint" />
          </mxGeometry>
        </mxCell>
        <mxCell id="t_Q1t_2WmVFXvkJE9FLC-665" value="" style="endArrow=none;html=1;rounded=0;fillColor=#e1d5e7;strokeColor=#9673a6;strokeWidth=2;" parent="t_Q1t_2WmVFXvkJE9FLC-662" edge="1">
          <mxGeometry width="50" height="50" relative="1" as="geometry">
            <mxPoint x="20" y="138" as="sourcePoint" />
            <mxPoint x="20" y="108" as="targetPoint" />
          </mxGeometry>
        </mxCell>
        <mxCell id="t_Q1t_2WmVFXvkJE9FLC-666" value="" style="endArrow=none;html=1;rounded=0;fillColor=#e1d5e7;strokeColor=#9673a6;strokeWidth=2;" parent="t_Q1t_2WmVFXvkJE9FLC-662" edge="1">
          <mxGeometry width="50" height="50" relative="1" as="geometry">
            <mxPoint x="60" y="19" as="sourcePoint" />
            <mxPoint x="73" as="targetPoint" />
          </mxGeometry>
        </mxCell>
        <mxCell id="t_Q1t_2WmVFXvkJE9FLC-667" value="" style="endArrow=none;html=1;rounded=0;fillColor=#e1d5e7;strokeColor=#9673a6;strokeWidth=2;" parent="t_Q1t_2WmVFXvkJE9FLC-662" edge="1">
          <mxGeometry width="50" height="50" relative="1" as="geometry">
            <mxPoint x="60" y="18" as="sourcePoint" />
            <mxPoint x="60" y="48" as="targetPoint" />
          </mxGeometry>
        </mxCell>
        <mxCell id="t_Q1t_2WmVFXvkJE9FLC-668" value="" style="endArrow=none;html=1;rounded=0;fillColor=#fff2cc;strokeColor=#d6b656;strokeWidth=2;" parent="1" edge="1">
          <mxGeometry width="50" height="50" relative="1" as="geometry">
            <mxPoint x="865" y="140" as="sourcePoint" />
            <mxPoint x="945" y="140" as="targetPoint" />
          </mxGeometry>
        </mxCell>
        <mxCell id="t_Q1t_2WmVFXvkJE9FLC-669" value="" style="endArrow=none;html=1;rounded=0;fillColor=#fff2cc;strokeColor=#d6b656;strokeWidth=2;" parent="1" edge="1">
          <mxGeometry width="50" height="50" relative="1" as="geometry">
            <mxPoint x="865" y="140" as="sourcePoint" />
            <mxPoint x="865" y="220" as="targetPoint" />
          </mxGeometry>
        </mxCell>
        <mxCell id="t_Q1t_2WmVFXvkJE9FLC-670" value="$" style="text;html=1;align=center;verticalAlign=middle;whiteSpace=wrap;rounded=0;" parent="1" vertex="1">
          <mxGeometry x="740" y="110" width="20" height="30" as="geometry" />
        </mxCell>
        <mxCell id="t_Q1t_2WmVFXvkJE9FLC-671" value="MW" style="text;html=1;align=center;verticalAlign=middle;whiteSpace=wrap;rounded=0;" parent="1" vertex="1">
          <mxGeometry x="257.75" y="151" width="41" height="28" as="geometry" />
        </mxCell>
        <mxCell id="t_Q1t_2WmVFXvkJE9FLC-673" value="" style="curved=1;endArrow=classic;html=1;rounded=0;dashed=1;dashPattern=8 8;" parent="1" edge="1">
          <mxGeometry width="50" height="50" relative="1" as="geometry">
            <mxPoint x="911" y="208" as="sourcePoint" />
            <mxPoint x="880" y="148" as="targetPoint" />
            <Array as="points">
              <mxPoint x="911" y="178" />
            </Array>
          </mxGeometry>
        </mxCell>
        <mxCell id="t_Q1t_2WmVFXvkJE9FLC-674" value="1. Bid Behavior Changepoint Detection" style="text;html=1;align=center;verticalAlign=middle;whiteSpace=wrap;rounded=0;fontStyle=1" parent="1" vertex="1">
          <mxGeometry x="750" y="90" width="222" height="20" as="geometry" />
        </mxCell>
        <mxCell id="t_Q1t_2WmVFXvkJE9FLC-676" value="OASIS" style="swimlane;whiteSpace=wrap;html=1;" parent="1" vertex="1">
          <mxGeometry x="20" y="630" width="171" height="70" as="geometry" />
        </mxCell>
        <mxCell id="t_Q1t_2WmVFXvkJE9FLC-678" value="Public Bids" style="rounded=1;whiteSpace=wrap;html=1;" parent="t_Q1t_2WmVFXvkJE9FLC-676" vertex="1">
          <mxGeometry x="40.5" y="32" width="120" height="20" as="geometry" />
        </mxCell>
        <mxCell id="t_Q1t_2WmVFXvkJE9FLC-684" style="edgeStyle=orthogonalEdgeStyle;rounded=0;orthogonalLoop=1;jettySize=auto;html=1;entryX=0.145;entryY=0;entryDx=0;entryDy=4.35;entryPerimeter=0;" parent="1" source="t_Q1t_2WmVFXvkJE9FLC-679" target="t_Q1t_2WmVFXvkJE9FLC-685" edge="1">
          <mxGeometry relative="1" as="geometry">
            <mxPoint x="390" y="788" as="targetPoint" />
          </mxGeometry>
        </mxCell>
        <mxCell id="t_Q1t_2WmVFXvkJE9FLC-679" value="Web Scrapper" style="rounded=1;whiteSpace=wrap;html=1;" parent="1" vertex="1">
          <mxGeometry x="235.5" y="700" width="120" height="60" as="geometry" />
        </mxCell>
        <mxCell id="t_Q1t_2WmVFXvkJE9FLC-680" style="edgeStyle=orthogonalEdgeStyle;rounded=0;orthogonalLoop=1;jettySize=auto;html=1;entryX=0;entryY=0.5;entryDx=0;entryDy=0;" parent="1" source="t_Q1t_2WmVFXvkJE9FLC-678" target="t_Q1t_2WmVFXvkJE9FLC-679" edge="1">
          <mxGeometry relative="1" as="geometry" />
        </mxCell>
        <mxCell id="t_Q1t_2WmVFXvkJE9FLC-694" style="edgeStyle=orthogonalEdgeStyle;rounded=0;orthogonalLoop=1;jettySize=auto;html=1;" parent="1" source="t_Q1t_2WmVFXvkJE9FLC-681" target="t_Q1t_2WmVFXvkJE9FLC-695" edge="1">
          <mxGeometry relative="1" as="geometry">
            <mxPoint x="650" y="728" as="targetPoint" />
          </mxGeometry>
        </mxCell>
        <mxCell id="xTVIRCYp3S0EbmACaAt5-12" style="edgeStyle=orthogonalEdgeStyle;rounded=0;orthogonalLoop=1;jettySize=auto;html=1;" parent="1" source="t_Q1t_2WmVFXvkJE9FLC-681" target="xTVIRCYp3S0EbmACaAt5-2" edge="1">
          <mxGeometry relative="1" as="geometry" />
        </mxCell>
        <mxCell id="t_Q1t_2WmVFXvkJE9FLC-681" value="Input Data Frame&lt;br&gt;for Bids" style="rounded=1;whiteSpace=wrap;html=1;" parent="1" vertex="1">
          <mxGeometry x="476" y="698" width="120" height="60" as="geometry" />
        </mxCell>
        <mxCell id="t_Q1t_2WmVFXvkJE9FLC-682" value="#Generator ID" style="text;html=1;align=center;verticalAlign=middle;whiteSpace=wrap;rounded=0;fontSize=9;fontStyle=2" parent="1" vertex="1">
          <mxGeometry x="542" y="638" width="80" height="10" as="geometry" />
        </mxCell>
        <mxCell id="t_Q1t_2WmVFXvkJE9FLC-687" style="edgeStyle=orthogonalEdgeStyle;rounded=0;orthogonalLoop=1;jettySize=auto;html=1;" parent="1" source="t_Q1t_2WmVFXvkJE9FLC-683" target="t_Q1t_2WmVFXvkJE9FLC-681" edge="1">
          <mxGeometry relative="1" as="geometry" />
        </mxCell>
        <mxCell id="t_Q1t_2WmVFXvkJE9FLC-683" value="config file" style="shape=parallelogram;perimeter=parallelogramPerimeter;whiteSpace=wrap;html=1;fixedSize=1;" parent="1" vertex="1">
          <mxGeometry x="419" y="638" width="120" height="22" as="geometry" />
        </mxCell>
        <mxCell id="t_Q1t_2WmVFXvkJE9FLC-685" value="Local Archive" style="shape=cylinder3;whiteSpace=wrap;html=1;boundedLbl=1;backgroundOutline=1;size=15;" parent="1" vertex="1">
          <mxGeometry x="369" y="778" width="60" height="80" as="geometry" />
        </mxCell>
        <mxCell id="t_Q1t_2WmVFXvkJE9FLC-686" value="" style="endArrow=classic;html=1;rounded=0;exitX=0.855;exitY=0;exitDx=0;exitDy=4.35;exitPerimeter=0;entryX=0;entryY=0.5;entryDx=0;entryDy=0;" parent="1" source="t_Q1t_2WmVFXvkJE9FLC-685" target="t_Q1t_2WmVFXvkJE9FLC-681" edge="1">
          <mxGeometry width="50" height="50" relative="1" as="geometry">
            <mxPoint x="440" y="788" as="sourcePoint" />
            <mxPoint x="450" y="728" as="targetPoint" />
            <Array as="points">
              <mxPoint x="420" y="728" />
            </Array>
          </mxGeometry>
        </mxCell>
        <mxCell id="t_Q1t_2WmVFXvkJE9FLC-688" value="#Commodity" style="text;html=1;align=center;verticalAlign=middle;whiteSpace=wrap;rounded=0;fontSize=9;fontStyle=2" parent="1" vertex="1">
          <mxGeometry x="536" y="650" width="86" height="10" as="geometry" />
        </mxCell>
        <mxCell id="t_Q1t_2WmVFXvkJE9FLC-689" value="#Training Set" style="text;html=1;align=center;verticalAlign=middle;whiteSpace=wrap;rounded=0;fontSize=9;fontStyle=2" parent="1" vertex="1">
          <mxGeometry x="536" y="660" width="86" height="10" as="geometry" />
        </mxCell>
        <mxCell id="t_Q1t_2WmVFXvkJE9FLC-690" value="#Validation Set" style="text;html=1;align=center;verticalAlign=middle;whiteSpace=wrap;rounded=0;fontSize=9;fontStyle=2" parent="1" vertex="1">
          <mxGeometry x="539" y="678" width="86" height="10" as="geometry" />
        </mxCell>
        <mxCell id="t_Q1t_2WmVFXvkJE9FLC-701" style="edgeStyle=orthogonalEdgeStyle;rounded=0;orthogonalLoop=1;jettySize=auto;html=1;entryX=0;entryY=0.5;entryDx=0;entryDy=0;" parent="1" source="t_Q1t_2WmVFXvkJE9FLC-693" target="t_Q1t_2WmVFXvkJE9FLC-700" edge="1">
          <mxGeometry relative="1" as="geometry" />
        </mxCell>
        <mxCell id="t_Q1t_2WmVFXvkJE9FLC-693" value="Validation Set" style="rounded=1;whiteSpace=wrap;html=1;" parent="1" vertex="1">
          <mxGeometry x="650" y="798" width="120" height="60" as="geometry" />
        </mxCell>
        <mxCell id="t_Q1t_2WmVFXvkJE9FLC-697" style="edgeStyle=orthogonalEdgeStyle;rounded=0;orthogonalLoop=1;jettySize=auto;html=1;" parent="1" source="t_Q1t_2WmVFXvkJE9FLC-695" target="t_Q1t_2WmVFXvkJE9FLC-699" edge="1">
          <mxGeometry relative="1" as="geometry">
            <mxPoint x="832.5" y="728" as="targetPoint" />
          </mxGeometry>
        </mxCell>
        <mxCell id="t_Q1t_2WmVFXvkJE9FLC-695" value="Training Set" style="shape=parallelogram;perimeter=parallelogramPerimeter;whiteSpace=wrap;html=1;fixedSize=1;" parent="1" vertex="1">
          <mxGeometry x="659.5" y="698" width="120" height="60" as="geometry" />
        </mxCell>
        <mxCell id="t_Q1t_2WmVFXvkJE9FLC-696" style="edgeStyle=orthogonalEdgeStyle;rounded=0;orthogonalLoop=1;jettySize=auto;html=1;exitX=1;exitY=0.5;exitDx=0;exitDy=0;entryX=-0.008;entryY=0.57;entryDx=0;entryDy=0;entryPerimeter=0;" parent="1" source="t_Q1t_2WmVFXvkJE9FLC-681" target="t_Q1t_2WmVFXvkJE9FLC-693" edge="1">
          <mxGeometry relative="1" as="geometry">
            <mxPoint x="606" y="738" as="sourcePoint" />
            <mxPoint x="670" y="738" as="targetPoint" />
          </mxGeometry>
        </mxCell>
        <mxCell id="t_Q1t_2WmVFXvkJE9FLC-702" style="edgeStyle=orthogonalEdgeStyle;rounded=0;orthogonalLoop=1;jettySize=auto;html=1;" parent="1" source="t_Q1t_2WmVFXvkJE9FLC-699" target="t_Q1t_2WmVFXvkJE9FLC-700" edge="1">
          <mxGeometry relative="1" as="geometry" />
        </mxCell>
        <mxCell id="t_Q1t_2WmVFXvkJE9FLC-699" value="Bid Model" style="rounded=1;whiteSpace=wrap;html=1;" parent="1" vertex="1">
          <mxGeometry x="832.5" y="698" width="120" height="60" as="geometry" />
        </mxCell>
        <mxCell id="t_Q1t_2WmVFXvkJE9FLC-703" style="edgeStyle=orthogonalEdgeStyle;rounded=0;orthogonalLoop=1;jettySize=auto;html=1;entryX=0.5;entryY=0;entryDx=0;entryDy=0;" parent="1" source="t_Q1t_2WmVFXvkJE9FLC-700" target="t_Q1t_2WmVFXvkJE9FLC-704" edge="1">
          <mxGeometry relative="1" as="geometry">
            <mxPoint x="892.5" y="910" as="targetPoint" />
          </mxGeometry>
        </mxCell>
        <mxCell id="t_Q1t_2WmVFXvkJE9FLC-700" value="Model Evaluation" style="rhombus;whiteSpace=wrap;html=1;" parent="1" vertex="1">
          <mxGeometry x="852.5" y="788" width="80" height="80" as="geometry" />
        </mxCell>
        <mxCell id="xTVIRCYp3S0EbmACaAt5-5" style="edgeStyle=orthogonalEdgeStyle;rounded=0;orthogonalLoop=1;jettySize=auto;html=1;" parent="1" source="t_Q1t_2WmVFXvkJE9FLC-704" target="xTVIRCYp3S0EbmACaAt5-1" edge="1">
          <mxGeometry relative="1" as="geometry" />
        </mxCell>
        <mxCell id="t_Q1t_2WmVFXvkJE9FLC-704" value="Bid Change Point Detection" style="rounded=1;whiteSpace=wrap;html=1;" parent="1" vertex="1">
          <mxGeometry x="832.5" y="890" width="120" height="60" as="geometry" />
        </mxCell>
        <mxCell id="P_heWS73PsoNVlI9atCC-2" value="Online Pattern Recognition" style="text;html=1;align=center;verticalAlign=middle;whiteSpace=wrap;rounded=0;fontStyle=2" parent="1" vertex="1">
          <mxGeometry x="621.75" y="1018" width="80" height="32" as="geometry" />
        </mxCell>
        <mxCell id="xTVIRCYp3S0EbmACaAt5-1" value="Price Impact &lt;br&gt;Causal Inference" style="rounded=1;whiteSpace=wrap;html=1;" parent="1" vertex="1">
          <mxGeometry x="832.5" y="979" width="120" height="60" as="geometry" />
        </mxCell>
        <mxCell id="xTVIRCYp3S0EbmACaAt5-4" style="edgeStyle=orthogonalEdgeStyle;rounded=0;orthogonalLoop=1;jettySize=auto;html=1;entryX=0;entryY=0.5;entryDx=0;entryDy=0;exitX=1;exitY=0.5;exitDx=0;exitDy=0;" parent="1" source="xTVIRCYp3S0EbmACaAt5-2" target="xTVIRCYp3S0EbmACaAt5-1" edge="1">
          <mxGeometry relative="1" as="geometry">
            <Array as="points">
              <mxPoint x="620" y="920" />
              <mxPoint x="620" y="1009" />
            </Array>
          </mxGeometry>
        </mxCell>
        <mxCell id="xTVIRCYp3S0EbmACaAt5-2" value="Input Data Frame&lt;br&gt;for Prices" style="rounded=1;whiteSpace=wrap;html=1;" parent="1" vertex="1">
          <mxGeometry x="469.75" y="890" width="120" height="60" as="geometry" />
        </mxCell>
        <mxCell id="xTVIRCYp3S0EbmACaAt5-3" value="" style="endArrow=classic;html=1;rounded=0;exitX=0.855;exitY=0;exitDx=0;exitDy=4.35;exitPerimeter=0;entryX=0;entryY=0.5;entryDx=0;entryDy=0;" parent="1" source="t_Q1t_2WmVFXvkJE9FLC-685" target="xTVIRCYp3S0EbmACaAt5-2" edge="1">
          <mxGeometry width="50" height="50" relative="1" as="geometry">
            <mxPoint x="430" y="792" as="sourcePoint" />
            <mxPoint x="486" y="738" as="targetPoint" />
            <Array as="points">
              <mxPoint x="440" y="750" />
              <mxPoint x="460" y="750" />
              <mxPoint x="460" y="920" />
            </Array>
          </mxGeometry>
        </mxCell>
        <mxCell id="xTVIRCYp3S0EbmACaAt5-8" value="#Location Map" style="text;html=1;align=center;verticalAlign=middle;whiteSpace=wrap;rounded=0;fontSize=9;fontStyle=2" parent="1" vertex="1">
          <mxGeometry x="525.75" y="840" width="80" height="10" as="geometry" />
        </mxCell>
        <mxCell id="xTVIRCYp3S0EbmACaAt5-9" value="#Commodity" style="text;html=1;align=center;verticalAlign=middle;whiteSpace=wrap;rounded=0;fontSize=9;fontStyle=2" parent="1" vertex="1">
          <mxGeometry x="519.75" y="852" width="86" height="10" as="geometry" />
        </mxCell>
        <mxCell id="xTVIRCYp3S0EbmACaAt5-10" value="#Training Set" style="text;html=1;align=center;verticalAlign=middle;whiteSpace=wrap;rounded=0;fontSize=9;fontStyle=2" parent="1" vertex="1">
          <mxGeometry x="519.75" y="862" width="86" height="10" as="geometry" />
        </mxCell>
        <mxCell id="xTVIRCYp3S0EbmACaAt5-11" value="#Validation Set" style="text;html=1;align=center;verticalAlign=middle;whiteSpace=wrap;rounded=0;fontSize=9;fontStyle=2" parent="1" vertex="1">
          <mxGeometry x="522.75" y="875" width="86" height="10" as="geometry" />
        </mxCell>
        <mxCell id="xTVIRCYp3S0EbmACaAt5-13" value="" style="shape=flexArrow;endArrow=classic;html=1;rounded=0;" parent="1" edge="1">
          <mxGeometry width="50" height="50" relative="1" as="geometry">
            <mxPoint x="659.5" y="200" as="sourcePoint" />
            <mxPoint x="739.5" y="200" as="targetPoint" />
          </mxGeometry>
        </mxCell>
        <mxCell id="SfMZM9tSEQPTUGWUDStH-1" value="" style="endArrow=none;html=1;rounded=0;" parent="1" edge="1">
          <mxGeometry width="50" height="50" relative="1" as="geometry">
            <mxPoint x="181" y="516" as="sourcePoint" />
            <mxPoint x="681" y="516" as="targetPoint" />
          </mxGeometry>
        </mxCell>
        <mxCell id="SfMZM9tSEQPTUGWUDStH-2" value="" style="endArrow=none;html=1;rounded=0;" parent="1" edge="1">
          <mxGeometry width="50" height="50" relative="1" as="geometry">
            <mxPoint x="201" y="536" as="sourcePoint" />
            <mxPoint x="201" y="366" as="targetPoint" />
          </mxGeometry>
        </mxCell>
        <mxCell id="SfMZM9tSEQPTUGWUDStH-3" value="" style="endArrow=none;html=1;rounded=0;fillColor=#d5e8d4;strokeColor=#82b366;strokeWidth=3;" parent="1" edge="1">
          <mxGeometry width="50" height="50" relative="1" as="geometry">
            <mxPoint x="200" y="443" as="sourcePoint" />
            <mxPoint x="670" y="463" as="targetPoint" />
            <Array as="points">
              <mxPoint x="240.25" y="451" />
              <mxPoint x="299.75" y="461" />
              <mxPoint x="350" y="473" />
              <mxPoint x="380.25" y="441" />
              <mxPoint x="410" y="451" />
              <mxPoint x="470" y="443" />
              <mxPoint x="490" y="463" />
              <mxPoint x="520" y="473" />
              <mxPoint x="540" y="373" />
              <mxPoint x="550" y="471" />
              <mxPoint x="580.25" y="471" />
              <mxPoint x="630.25" y="501" />
              <mxPoint x="650" y="473" />
            </Array>
          </mxGeometry>
        </mxCell>
        <mxCell id="SfMZM9tSEQPTUGWUDStH-10" value="Energy Locational Price" style="text;html=1;align=center;verticalAlign=middle;whiteSpace=wrap;rounded=0;fontSize=8;fontColor=#82b366;fontStyle=1" parent="1" vertex="1">
          <mxGeometry x="668.25" y="450" width="50.5" height="20" as="geometry" />
        </mxCell>
        <mxCell id="SfMZM9tSEQPTUGWUDStH-13" value="LMP ($)" style="text;html=1;align=center;verticalAlign=middle;whiteSpace=wrap;rounded=0;" parent="1" vertex="1">
          <mxGeometry x="151" y="353" width="60" height="30" as="geometry" />
        </mxCell>
        <mxCell id="SfMZM9tSEQPTUGWUDStH-14" value="time" style="text;html=1;align=center;verticalAlign=middle;whiteSpace=wrap;rounded=0;" parent="1" vertex="1">
          <mxGeometry x="661.5" y="518" width="60" height="30" as="geometry" />
        </mxCell>
        <mxCell id="SfMZM9tSEQPTUGWUDStH-17" value="" style="ellipse;whiteSpace=wrap;html=1;aspect=fixed;fillColor=#e1d5e7;strokeColor=#9673a6;" parent="1" vertex="1">
          <mxGeometry x="930" y="359" width="10" height="10" as="geometry" />
        </mxCell>
        <mxCell id="SfMZM9tSEQPTUGWUDStH-19" value="" style="endArrow=none;html=1;rounded=0;" parent="1" edge="1">
          <mxGeometry width="50" height="50" relative="1" as="geometry">
            <mxPoint x="767" y="530" as="sourcePoint" />
            <mxPoint x="767" y="360" as="targetPoint" />
          </mxGeometry>
        </mxCell>
        <mxCell id="SfMZM9tSEQPTUGWUDStH-20" value="" style="endArrow=none;html=1;rounded=0;" parent="1" edge="1">
          <mxGeometry width="50" height="50" relative="1" as="geometry">
            <mxPoint x="757" y="520" as="sourcePoint" />
            <mxPoint x="947" y="520" as="targetPoint" />
          </mxGeometry>
        </mxCell>
        <mxCell id="SfMZM9tSEQPTUGWUDStH-24" value="" style="endArrow=none;dashed=1;html=1;dashPattern=1 3;strokeWidth=2;rounded=0;opacity=30;fillColor=#dae8fc;strokeColor=#6c8ebf;entryX=0;entryY=0.5;entryDx=0;entryDy=0;" parent="1" target="SfMZM9tSEQPTUGWUDStH-17" edge="1">
          <mxGeometry width="50" height="50" relative="1" as="geometry">
            <mxPoint x="540" y="364" as="sourcePoint" />
            <mxPoint x="900" y="364" as="targetPoint" />
          </mxGeometry>
        </mxCell>
        <mxCell id="SfMZM9tSEQPTUGWUDStH-25" value="" style="ellipse;whiteSpace=wrap;html=1;aspect=fixed;fillColor=#e1d5e7;strokeColor=#9673a6;" parent="1" vertex="1">
          <mxGeometry x="876.5" y="470" width="10" height="10" as="geometry" />
        </mxCell>
        <mxCell id="SfMZM9tSEQPTUGWUDStH-26" value="" style="endArrow=none;dashed=1;html=1;dashPattern=1 3;strokeWidth=2;rounded=0;opacity=30;fillColor=#dae8fc;strokeColor=#6c8ebf;entryX=0;entryY=0.5;entryDx=0;entryDy=0;" parent="1" target="SfMZM9tSEQPTUGWUDStH-25" edge="1">
          <mxGeometry width="50" height="50" relative="1" as="geometry">
            <mxPoint x="549" y="470" as="sourcePoint" />
            <mxPoint x="909" y="470" as="targetPoint" />
          </mxGeometry>
        </mxCell>
        <mxCell id="SfMZM9tSEQPTUGWUDStH-27" value="" style="ellipse;whiteSpace=wrap;html=1;aspect=fixed;fillColor=#e1d5e7;strokeColor=#9673a6;" parent="1" vertex="1">
          <mxGeometry x="908.75" y="470" width="10" height="10" as="geometry" />
        </mxCell>
        <mxCell id="SfMZM9tSEQPTUGWUDStH-28" value="" style="endArrow=none;dashed=1;html=1;dashPattern=1 3;strokeWidth=2;rounded=0;opacity=30;fillColor=#dae8fc;strokeColor=#6c8ebf;entryX=0;entryY=0.5;entryDx=0;entryDy=0;" parent="1" target="SfMZM9tSEQPTUGWUDStH-27" edge="1">
          <mxGeometry width="50" height="50" relative="1" as="geometry">
            <mxPoint x="581.25" y="470" as="sourcePoint" />
            <mxPoint x="941.25" y="470" as="targetPoint" />
          </mxGeometry>
        </mxCell>
        <mxCell id="SfMZM9tSEQPTUGWUDStH-29" value="" style="ellipse;whiteSpace=wrap;html=1;aspect=fixed;fillColor=#e1d5e7;strokeColor=#9673a6;" parent="1" vertex="1">
          <mxGeometry x="890.5" y="481" width="10" height="10" as="geometry" />
        </mxCell>
        <mxCell id="SfMZM9tSEQPTUGWUDStH-30" value="" style="endArrow=none;dashed=1;html=1;dashPattern=1 3;strokeWidth=2;rounded=0;opacity=30;fillColor=#dae8fc;strokeColor=#6c8ebf;entryX=0;entryY=0.5;entryDx=0;entryDy=0;" parent="1" target="SfMZM9tSEQPTUGWUDStH-29" edge="1">
          <mxGeometry width="50" height="50" relative="1" as="geometry">
            <mxPoint x="599" y="481" as="sourcePoint" />
            <mxPoint x="959" y="481" as="targetPoint" />
          </mxGeometry>
        </mxCell>
        <mxCell id="SfMZM9tSEQPTUGWUDStH-31" value="" style="ellipse;whiteSpace=wrap;html=1;aspect=fixed;fillColor=#e1d5e7;strokeColor=#9673a6;" parent="1" vertex="1">
          <mxGeometry x="902.75" y="500" width="10" height="10" as="geometry" />
        </mxCell>
        <mxCell id="SfMZM9tSEQPTUGWUDStH-32" value="" style="endArrow=none;dashed=1;html=1;dashPattern=1 3;strokeWidth=2;rounded=0;opacity=30;fillColor=#dae8fc;strokeColor=#6c8ebf;entryX=0;entryY=0.5;entryDx=0;entryDy=0;" parent="1" target="SfMZM9tSEQPTUGWUDStH-31" edge="1">
          <mxGeometry width="50" height="50" relative="1" as="geometry">
            <mxPoint x="626.25" y="500" as="sourcePoint" />
            <mxPoint x="986.25" y="500" as="targetPoint" />
          </mxGeometry>
        </mxCell>
        <mxCell id="SfMZM9tSEQPTUGWUDStH-33" value="" style="ellipse;whiteSpace=wrap;html=1;aspect=fixed;fillColor=#e1d5e7;strokeColor=#9673a6;" parent="1" vertex="1">
          <mxGeometry x="890.75" y="460" width="10" height="10" as="geometry" />
        </mxCell>
        <mxCell id="SfMZM9tSEQPTUGWUDStH-34" value="" style="endArrow=none;dashed=1;html=1;dashPattern=1 3;strokeWidth=2;rounded=0;opacity=30;fillColor=#dae8fc;strokeColor=#6c8ebf;entryX=0;entryY=0.5;entryDx=0;entryDy=0;" parent="1" target="SfMZM9tSEQPTUGWUDStH-33" edge="1">
          <mxGeometry width="50" height="50" relative="1" as="geometry">
            <mxPoint x="671.25" y="460" as="sourcePoint" />
            <mxPoint x="1031.25" y="460" as="targetPoint" />
          </mxGeometry>
        </mxCell>
        <mxCell id="SfMZM9tSEQPTUGWUDStH-35" value="" style="ellipse;whiteSpace=wrap;html=1;aspect=fixed;fillColor=#e1d5e7;strokeColor=#9673a6;" parent="1" vertex="1">
          <mxGeometry x="872.25" y="441" width="10" height="10" as="geometry" />
        </mxCell>
        <mxCell id="SfMZM9tSEQPTUGWUDStH-36" value="" style="endArrow=none;dashed=1;html=1;dashPattern=1 3;strokeWidth=2;rounded=0;opacity=30;fillColor=#dae8fc;strokeColor=#6c8ebf;entryX=0;entryY=0.5;entryDx=0;entryDy=0;" parent="1" target="SfMZM9tSEQPTUGWUDStH-35" edge="1">
          <mxGeometry width="50" height="50" relative="1" as="geometry">
            <mxPoint x="469.75" y="441" as="sourcePoint" />
            <mxPoint x="829.75" y="441" as="targetPoint" />
          </mxGeometry>
        </mxCell>
        <mxCell id="SfMZM9tSEQPTUGWUDStH-37" value="Awarded MW" style="text;html=1;align=center;verticalAlign=middle;whiteSpace=wrap;rounded=0;" parent="1" vertex="1">
          <mxGeometry x="949" y="510" width="41" height="30" as="geometry" />
        </mxCell>
        <mxCell id="SfMZM9tSEQPTUGWUDStH-38" value="LMP $" style="text;html=1;align=center;verticalAlign=middle;whiteSpace=wrap;rounded=0;" parent="1" vertex="1">
          <mxGeometry x="740" y="329" width="41" height="30" as="geometry" />
        </mxCell>
        <mxCell id="SfMZM9tSEQPTUGWUDStH-39" value="2. Price Impact Verificaiton" style="text;html=1;align=center;verticalAlign=middle;whiteSpace=wrap;rounded=0;fontStyle=1" parent="1" vertex="1">
          <mxGeometry x="728.75" y="548" width="261.25" height="20" as="geometry" />
        </mxCell>
        <mxCell id="SfMZM9tSEQPTUGWUDStH-40" value="For one Generator #G" style="text;html=1;align=center;verticalAlign=middle;whiteSpace=wrap;rounded=0;fontStyle=5" parent="1" vertex="1">
          <mxGeometry x="155.75" y="50" width="194" height="30" as="geometry" />
        </mxCell>
        <mxCell id="z0AW0zARnNhw43MExswy-1" value="Inference Mechanism&lt;br&gt;(to be thought about it)" style="text;html=1;align=center;verticalAlign=middle;whiteSpace=wrap;rounded=0;fontStyle=2" parent="1" vertex="1">
          <mxGeometry x="960" y="994" width="130" height="26" as="geometry" />
        </mxCell>
        <mxCell id="MNVFe0vZBfFfo6SSXByf-1" value="Black Box&lt;br&gt;(ISO)" style="rounded=1;whiteSpace=wrap;html=1;" parent="1" vertex="1">
          <mxGeometry x="496" y="-80" width="120" height="60" as="geometry" />
        </mxCell>
        <mxCell id="MNVFe0vZBfFfo6SSXByf-2" value="" style="endArrow=classic;html=1;rounded=0;entryX=0;entryY=0.5;entryDx=0;entryDy=0;" parent="1" target="MNVFe0vZBfFfo6SSXByf-1" edge="1">
          <mxGeometry width="50" height="50" relative="1" as="geometry">
            <mxPoint x="400" y="-50" as="sourcePoint" />
            <mxPoint x="390" y="-80" as="targetPoint" />
          </mxGeometry>
        </mxCell>
        <mxCell id="MNVFe0vZBfFfo6SSXByf-3" value="Bids" style="text;html=1;align=center;verticalAlign=middle;whiteSpace=wrap;rounded=0;" parent="1" vertex="1">
          <mxGeometry x="372.75" y="-80" width="60" height="30" as="geometry" />
        </mxCell>
        <mxCell id="MNVFe0vZBfFfo6SSXByf-4" value="" style="endArrow=classic;html=1;rounded=0;exitX=1;exitY=0.5;exitDx=0;exitDy=0;" parent="1" source="MNVFe0vZBfFfo6SSXByf-1" edge="1">
          <mxGeometry width="50" height="50" relative="1" as="geometry">
            <mxPoint x="650" y="-40" as="sourcePoint" />
            <mxPoint x="720" y="-50" as="targetPoint" />
          </mxGeometry>
        </mxCell>
        <mxCell id="MNVFe0vZBfFfo6SSXByf-5" value="LMP and Awards" style="text;html=1;align=center;verticalAlign=middle;whiteSpace=wrap;rounded=0;" parent="1" vertex="1">
          <mxGeometry x="651" y="-80" width="60" height="30" as="geometry" />
        </mxCell>
        <mxCell id="MNVFe0vZBfFfo6SSXByf-6" value="Market Power Flag? Did the bid got mitigated?" style="text;html=1;align=center;verticalAlign=middle;whiteSpace=wrap;rounded=0;" parent="1" vertex="1">
          <mxGeometry x="651" y="-40" width="148.75" height="30" as="geometry" />
        </mxCell>
        <mxCell id="5WBlpq3MT6DM77cXeMOc-1" value="f_1(MW)" style="text;html=1;align=center;verticalAlign=middle;whiteSpace=wrap;rounded=0;" vertex="1" parent="1">
          <mxGeometry x="960" y="179" width="60" height="30" as="geometry" />
        </mxCell>
        <mxCell id="5WBlpq3MT6DM77cXeMOc-2" value="f_N(MW)" style="text;html=1;align=center;verticalAlign=middle;whiteSpace=wrap;rounded=0;" vertex="1" parent="1">
          <mxGeometry x="960" y="121" width="60" height="30" as="geometry" />
        </mxCell>
        <mxCell id="5WBlpq3MT6DM77cXeMOc-3" value="Distance Definition" style="text;html=1;align=center;verticalAlign=middle;whiteSpace=wrap;rounded=0;fontStyle=1" vertex="1" parent="1">
          <mxGeometry x="1070" y="151" width="120" height="18" as="geometry" />
        </mxCell>
        <mxCell id="5WBlpq3MT6DM77cXeMOc-4" value="Area under the curve" style="text;html=1;align=center;verticalAlign=middle;whiteSpace=wrap;rounded=0;" vertex="1" parent="1">
          <mxGeometry x="1140" y="165.5" width="140" height="19" as="geometry" />
        </mxCell>
        <mxCell id="5WBlpq3MT6DM77cXeMOc-5" value="Highest price of the curve" style="text;html=1;align=center;verticalAlign=middle;whiteSpace=wrap;rounded=0;" vertex="1" parent="1">
          <mxGeometry x="1140" y="184.5" width="140" height="19" as="geometry" />
        </mxCell>
        <mxCell id="5WBlpq3MT6DM77cXeMOc-7" value="Euclidian Distance" style="text;html=1;align=center;verticalAlign=middle;whiteSpace=wrap;rounded=0;" vertex="1" parent="1">
          <mxGeometry x="1140" y="203.5" width="140" height="19" as="geometry" />
        </mxCell>
      </root>
    </mxGraphModel>
  </diagram>
  <diagram id="6-WsoKnoGJti1KlEIdAZ" name="Training Set Definition">
    <mxGraphModel dx="2924" dy="1068" grid="1" gridSize="10" guides="1" tooltips="1" connect="1" arrows="1" fold="1" page="1" pageScale="1" pageWidth="850" pageHeight="1100" math="0" shadow="0">
      <root>
        <mxCell id="0" />
        <mxCell id="1" parent="0" />
        <mxCell id="yeJFdUOJ35Tw7akmhB_L-1" value="" style="rounded=0;whiteSpace=wrap;html=1;" parent="1" vertex="1">
          <mxGeometry x="-650" y="310" width="810" height="60" as="geometry" />
        </mxCell>
        <mxCell id="yeJFdUOJ35Tw7akmhB_L-2" value="" style="endArrow=none;html=1;rounded=0;" parent="1" edge="1">
          <mxGeometry width="50" height="50" relative="1" as="geometry">
            <mxPoint x="160" y="570" as="sourcePoint" />
            <mxPoint x="160" y="230" as="targetPoint" />
          </mxGeometry>
        </mxCell>
        <mxCell id="yeJFdUOJ35Tw7akmhB_L-3" value="" style="endArrow=none;html=1;rounded=0;" parent="1" edge="1">
          <mxGeometry width="50" height="50" relative="1" as="geometry">
            <mxPoint x="510" y="570" as="sourcePoint" />
            <mxPoint x="510" y="230" as="targetPoint" />
          </mxGeometry>
        </mxCell>
        <mxCell id="yeJFdUOJ35Tw7akmhB_L-4" value="Today" style="text;html=1;align=center;verticalAlign=middle;whiteSpace=wrap;rounded=0;" parent="1" vertex="1">
          <mxGeometry x="480" y="190" width="60" height="30" as="geometry" />
        </mxCell>
        <mxCell id="yeJFdUOJ35Tw7akmhB_L-5" value="Today - 60" style="text;html=1;align=center;verticalAlign=middle;whiteSpace=wrap;rounded=0;" parent="1" vertex="1">
          <mxGeometry x="140" y="190" width="60" height="30" as="geometry" />
        </mxCell>
        <mxCell id="yeJFdUOJ35Tw7akmhB_L-7" value="Oasis Forbids" style="text;html=1;align=center;verticalAlign=middle;whiteSpace=wrap;rounded=0;" parent="1" vertex="1">
          <mxGeometry x="300" y="325" width="60" height="30" as="geometry" />
        </mxCell>
        <mxCell id="yeJFdUOJ35Tw7akmhB_L-8" value="" style="endArrow=none;html=1;rounded=0;" parent="1" edge="1">
          <mxGeometry width="50" height="50" relative="1" as="geometry">
            <mxPoint x="-650" y="590" as="sourcePoint" />
            <mxPoint x="-650" y="230" as="targetPoint" />
          </mxGeometry>
        </mxCell>
        <mxCell id="yeJFdUOJ35Tw7akmhB_L-9" value="Fetched Historical Data" style="text;html=1;align=center;verticalAlign=middle;whiteSpace=wrap;rounded=0;" parent="1" vertex="1">
          <mxGeometry x="-310" y="140" width="120" height="30" as="geometry" />
        </mxCell>
        <mxCell id="6J17TozN55TUAPIqYBy1-26" style="edgeStyle=orthogonalEdgeStyle;rounded=0;orthogonalLoop=1;jettySize=auto;html=1;entryX=0.5;entryY=0;entryDx=0;entryDy=0;" parent="1" source="6J17TozN55TUAPIqYBy1-1" target="6J17TozN55TUAPIqYBy1-22" edge="1">
          <mxGeometry relative="1" as="geometry" />
        </mxCell>
        <mxCell id="6J17TozN55TUAPIqYBy1-1" value="Training set" style="rounded=1;whiteSpace=wrap;html=1;fillColor=#d5e8d4;strokeColor=#82b366;" parent="1" vertex="1">
          <mxGeometry x="-520" y="420" width="440" height="35" as="geometry" />
        </mxCell>
        <mxCell id="6J17TozN55TUAPIqYBy1-2" value="config file" style="shape=parallelogram;perimeter=parallelogramPerimeter;whiteSpace=wrap;html=1;fixedSize=1;" parent="1" vertex="1">
          <mxGeometry x="-840" y="410" width="120" height="30" as="geometry" />
        </mxCell>
        <mxCell id="6J17TozN55TUAPIqYBy1-3" value="-365 days" style="text;html=1;align=center;verticalAlign=middle;whiteSpace=wrap;rounded=0;" parent="1" vertex="1">
          <mxGeometry x="-690" y="200" width="60" height="30" as="geometry" />
        </mxCell>
        <mxCell id="6J17TozN55TUAPIqYBy1-4" value="" style="rounded=0;whiteSpace=wrap;html=1;" parent="1" vertex="1">
          <mxGeometry x="-530" y="310" width="20" height="60" as="geometry" />
        </mxCell>
        <mxCell id="6J17TozN55TUAPIqYBy1-5" value="" style="rounded=0;whiteSpace=wrap;html=1;" parent="1" vertex="1">
          <mxGeometry x="-510" y="310" width="20" height="60" as="geometry" />
        </mxCell>
        <mxCell id="6J17TozN55TUAPIqYBy1-6" value="" style="rounded=0;whiteSpace=wrap;html=1;" parent="1" vertex="1">
          <mxGeometry x="-490" y="310" width="20" height="60" as="geometry" />
        </mxCell>
        <mxCell id="6J17TozN55TUAPIqYBy1-7" value="" style="rounded=0;whiteSpace=wrap;html=1;" parent="1" vertex="1">
          <mxGeometry x="-470" y="310" width="20" height="60" as="geometry" />
        </mxCell>
        <mxCell id="6J17TozN55TUAPIqYBy1-8" value="" style="rounded=0;whiteSpace=wrap;html=1;" parent="1" vertex="1">
          <mxGeometry x="-450" y="310" width="20" height="60" as="geometry" />
        </mxCell>
        <mxCell id="6J17TozN55TUAPIqYBy1-9" value="" style="rounded=0;whiteSpace=wrap;html=1;" parent="1" vertex="1">
          <mxGeometry x="-430" y="310" width="20" height="60" as="geometry" />
        </mxCell>
        <mxCell id="6J17TozN55TUAPIqYBy1-10" value="" style="rounded=0;whiteSpace=wrap;html=1;" parent="1" vertex="1">
          <mxGeometry x="-590" y="310" width="20" height="60" as="geometry" />
        </mxCell>
        <mxCell id="6J17TozN55TUAPIqYBy1-11" value="" style="rounded=0;whiteSpace=wrap;html=1;" parent="1" vertex="1">
          <mxGeometry x="-570" y="310" width="20" height="60" as="geometry" />
        </mxCell>
        <mxCell id="6J17TozN55TUAPIqYBy1-12" value="" style="rounded=0;whiteSpace=wrap;html=1;" parent="1" vertex="1">
          <mxGeometry x="-550" y="310" width="20" height="60" as="geometry" />
        </mxCell>
        <mxCell id="6J17TozN55TUAPIqYBy1-13" value="" style="rounded=0;whiteSpace=wrap;html=1;" parent="1" vertex="1">
          <mxGeometry x="-200" y="310" width="20" height="60" as="geometry" />
        </mxCell>
        <mxCell id="6J17TozN55TUAPIqYBy1-14" value="" style="rounded=0;whiteSpace=wrap;html=1;" parent="1" vertex="1">
          <mxGeometry x="-180" y="310" width="20" height="60" as="geometry" />
        </mxCell>
        <mxCell id="6J17TozN55TUAPIqYBy1-15" value="" style="rounded=0;whiteSpace=wrap;html=1;" parent="1" vertex="1">
          <mxGeometry x="-160" y="310" width="20" height="60" as="geometry" />
        </mxCell>
        <mxCell id="6J17TozN55TUAPIqYBy1-16" value="" style="rounded=0;whiteSpace=wrap;html=1;" parent="1" vertex="1">
          <mxGeometry x="-140" y="310" width="20" height="60" as="geometry" />
        </mxCell>
        <mxCell id="6J17TozN55TUAPIqYBy1-17" value="" style="rounded=0;whiteSpace=wrap;html=1;" parent="1" vertex="1">
          <mxGeometry x="-120" y="310" width="20" height="60" as="geometry" />
        </mxCell>
        <mxCell id="6J17TozN55TUAPIqYBy1-18" value="" style="rounded=0;whiteSpace=wrap;html=1;" parent="1" vertex="1">
          <mxGeometry x="-100" y="310" width="20" height="60" as="geometry" />
        </mxCell>
        <mxCell id="6J17TozN55TUAPIqYBy1-19" value="" style="shape=curlyBracket;whiteSpace=wrap;html=1;rounded=1;flipH=1;labelPosition=right;verticalLabelPosition=middle;align=left;verticalAlign=middle;rotation=90;" parent="1" vertex="1">
          <mxGeometry x="-315" y="175" width="20" height="450" as="geometry" />
        </mxCell>
        <mxCell id="6J17TozN55TUAPIqYBy1-21" value="Validation Set" style="rounded=1;whiteSpace=wrap;html=1;fillColor=#dae8fc;strokeColor=#6c8ebf;" parent="1" vertex="1">
          <mxGeometry x="-80" y="420" width="120" height="60" as="geometry" />
        </mxCell>
        <mxCell id="6J17TozN55TUAPIqYBy1-22" value="Pandas Dataframe" style="swimlane;fontStyle=0;childLayout=stackLayout;horizontal=1;startSize=30;horizontalStack=0;resizeParent=1;resizeParentMax=0;resizeLast=0;collapsible=1;marginBottom=0;whiteSpace=wrap;html=1;" parent="1" vertex="1">
          <mxGeometry x="-480" y="700" width="140" height="120" as="geometry" />
        </mxCell>
        <mxCell id="6J17TozN55TUAPIqYBy1-23" value="Item 1" style="text;strokeColor=none;fillColor=none;align=left;verticalAlign=middle;spacingLeft=4;spacingRight=4;overflow=hidden;points=[[0,0.5],[1,0.5]];portConstraint=eastwest;rotatable=0;whiteSpace=wrap;html=1;" parent="6J17TozN55TUAPIqYBy1-22" vertex="1">
          <mxGeometry y="30" width="140" height="30" as="geometry" />
        </mxCell>
        <mxCell id="6J17TozN55TUAPIqYBy1-24" value="Item 2" style="text;strokeColor=none;fillColor=none;align=left;verticalAlign=middle;spacingLeft=4;spacingRight=4;overflow=hidden;points=[[0,0.5],[1,0.5]];portConstraint=eastwest;rotatable=0;whiteSpace=wrap;html=1;" parent="6J17TozN55TUAPIqYBy1-22" vertex="1">
          <mxGeometry y="60" width="140" height="30" as="geometry" />
        </mxCell>
        <mxCell id="6J17TozN55TUAPIqYBy1-25" value="Item 3" style="text;strokeColor=none;fillColor=none;align=left;verticalAlign=middle;spacingLeft=4;spacingRight=4;overflow=hidden;points=[[0,0.5],[1,0.5]];portConstraint=eastwest;rotatable=0;whiteSpace=wrap;html=1;" parent="6J17TozN55TUAPIqYBy1-22" vertex="1">
          <mxGeometry y="90" width="140" height="30" as="geometry" />
        </mxCell>
        <mxCell id="6J17TozN55TUAPIqYBy1-27" value="Pandas Dataframe" style="swimlane;fontStyle=0;childLayout=stackLayout;horizontal=1;startSize=30;horizontalStack=0;resizeParent=1;resizeParentMax=0;resizeLast=0;collapsible=1;marginBottom=0;whiteSpace=wrap;html=1;" parent="1" vertex="1">
          <mxGeometry x="-80" y="700" width="140" height="120" as="geometry" />
        </mxCell>
        <mxCell id="6J17TozN55TUAPIqYBy1-28" value="Item 1" style="text;strokeColor=none;fillColor=none;align=left;verticalAlign=middle;spacingLeft=4;spacingRight=4;overflow=hidden;points=[[0,0.5],[1,0.5]];portConstraint=eastwest;rotatable=0;whiteSpace=wrap;html=1;" parent="6J17TozN55TUAPIqYBy1-27" vertex="1">
          <mxGeometry y="30" width="140" height="30" as="geometry" />
        </mxCell>
        <mxCell id="6J17TozN55TUAPIqYBy1-29" value="Item 2" style="text;strokeColor=none;fillColor=none;align=left;verticalAlign=middle;spacingLeft=4;spacingRight=4;overflow=hidden;points=[[0,0.5],[1,0.5]];portConstraint=eastwest;rotatable=0;whiteSpace=wrap;html=1;" parent="6J17TozN55TUAPIqYBy1-27" vertex="1">
          <mxGeometry y="60" width="140" height="30" as="geometry" />
        </mxCell>
        <mxCell id="6J17TozN55TUAPIqYBy1-30" value="Item 3" style="text;strokeColor=none;fillColor=none;align=left;verticalAlign=middle;spacingLeft=4;spacingRight=4;overflow=hidden;points=[[0,0.5],[1,0.5]];portConstraint=eastwest;rotatable=0;whiteSpace=wrap;html=1;" parent="6J17TozN55TUAPIqYBy1-27" vertex="1">
          <mxGeometry y="90" width="140" height="30" as="geometry" />
        </mxCell>
        <mxCell id="6J17TozN55TUAPIqYBy1-31" style="edgeStyle=orthogonalEdgeStyle;rounded=0;orthogonalLoop=1;jettySize=auto;html=1;entryX=0.5;entryY=0;entryDx=0;entryDy=0;exitX=0.5;exitY=1;exitDx=0;exitDy=0;" parent="1" source="6J17TozN55TUAPIqYBy1-21" target="6J17TozN55TUAPIqYBy1-27" edge="1">
          <mxGeometry relative="1" as="geometry">
            <mxPoint x="-290" y="465" as="sourcePoint" />
            <mxPoint x="-400" y="710" as="targetPoint" />
          </mxGeometry>
        </mxCell>
        <mxCell id="6J17TozN55TUAPIqYBy1-32" value="" style="rounded=0;whiteSpace=wrap;html=1;" parent="1" vertex="1">
          <mxGeometry x="-80" y="310" width="20" height="60" as="geometry" />
        </mxCell>
        <mxCell id="6J17TozN55TUAPIqYBy1-33" value="" style="rounded=0;whiteSpace=wrap;html=1;" parent="1" vertex="1">
          <mxGeometry x="-60" y="310" width="20" height="60" as="geometry" />
        </mxCell>
        <mxCell id="6J17TozN55TUAPIqYBy1-34" value="" style="rounded=0;whiteSpace=wrap;html=1;" parent="1" vertex="1">
          <mxGeometry x="-40" y="310" width="20" height="60" as="geometry" />
        </mxCell>
        <mxCell id="6J17TozN55TUAPIqYBy1-35" value="" style="rounded=0;whiteSpace=wrap;html=1;" parent="1" vertex="1">
          <mxGeometry x="-20" y="310" width="20" height="60" as="geometry" />
        </mxCell>
        <mxCell id="6J17TozN55TUAPIqYBy1-36" value="" style="rounded=0;whiteSpace=wrap;html=1;" parent="1" vertex="1">
          <mxGeometry y="310" width="20" height="60" as="geometry" />
        </mxCell>
        <mxCell id="6J17TozN55TUAPIqYBy1-37" value="" style="rounded=0;whiteSpace=wrap;html=1;" parent="1" vertex="1">
          <mxGeometry x="20" y="310" width="20" height="60" as="geometry" />
        </mxCell>
        <mxCell id="6J17TozN55TUAPIqYBy1-38" value="" style="endArrow=classic;html=1;rounded=0;fillColor=#ffe6cc;strokeColor=#d79b00;strokeWidth=4;" parent="1" edge="1">
          <mxGeometry width="50" height="50" relative="1" as="geometry">
            <mxPoint x="-80" y="250" as="sourcePoint" />
            <mxPoint x="-80" y="550" as="targetPoint" />
          </mxGeometry>
        </mxCell>
      </root>
    </mxGraphModel>
  </diagram>
</mxfile>
